<?xml version="1.0" encoding="UTF-8" standalone="no"?>
<!DOCTYPE svg PUBLIC "-//W3C//DTD SVG 1.1//EN" "http://www.w3.org/Graphics/SVG/1.1/DTD/svg11.dtd">
<svg width="100%" height="100%" viewBox="0 0 2382 626" version="1.1" xmlns="http://www.w3.org/2000/svg" xmlns:xlink="http://www.w3.org/1999/xlink" xml:space="preserve" xmlns:serif="http://www.serif.com/" style="fill-rule:evenodd;clip-rule:evenodd;stroke-linejoin:round;stroke-miterlimit:2;">
    <g id="Layer-1" serif:id="Layer 1" transform="matrix(4.166667,0,0,4.166667,-563,-221)">
        <g transform="matrix(1,0,0,1,491.7145,102.1409)">
            <path d="M0,44.774C-0.419,44.485 -1.534,46.238 -1.517,46.919C-1.261,47.373 -1.037,46.137 -0.898,45.981C-0.832,45.907 0.382,45.375 0,44.774M-22.945,41.565C-23.067,41.466 -23.995,41.733 -23.71,42.023C-23.51,42.226 -22.84,41.649 -22.945,41.565M-22.911,42.437C-23.111,42.277 -23.635,42.652 -23.524,42.741C-23.323,42.901 -22.8,42.525 -22.911,42.437M-19.811,45.294C-19.734,45.371 -17.977,44.259 -17.975,44.145C-18.31,43.732 -18.47,43.903 -18.453,44.347C-18.51,44.412 -20.2,44.903 -19.811,45.294M-21.122,46.3C-21.235,46.21 -21.802,46.312 -21.887,46.53C-22.117,47.118 -20.929,46.454 -21.122,46.3M0.563,43.15C-0.008,43.08 -0.123,43.444 0.562,43.456L0.563,43.15ZM-22.05,45.501C-20.122,45.22 -20.127,42.796 -22.059,44.587C-24.082,42.366 -22.708,44.616 -22.05,45.501M-23.19,45.893C-26.262,40.39 -27.778,42.51 -23.18,45.95L-23.19,45.893ZM-22.327,40.094C-22.231,39.757 -23.153,39.103 -23.247,39.562C-23.078,40.044 -22.869,40.375 -22.327,40.094M-24.714,41.772C-25.131,41.439 -25.416,42.264 -24.945,42.076C-24.872,42.047 -24.667,41.81 -24.714,41.772M-21.038,42.077C-20.997,41.804 -21.039,41.541 -21.343,41.464L-21.343,42.077L-21.038,42.077ZM-18.586,41.312C-19.203,41.274 -18.961,41.836 -19.053,42.146C-19.914,44.264 -18.151,42.66 -18.586,41.312M1.176,41.158C0.816,40.76 0.003,42.72 1.076,41.781C1.228,41.648 1.213,41.2 1.176,41.158M-25.021,39.626C-25.634,39.535 -25.497,40.358 -25.021,40.238L-25.021,39.626ZM-1.923,37.38C-1.26,37.754 0.159,36.338 -1.615,36.306C-1.615,36.306 -2.585,37.006 -1.923,37.38M-20.578,36.869C-20.79,36.665 -21.353,36.952 -21.345,37.327C-20.599,37.456 -20.566,37.791 -20.578,36.869M-23.642,36.868C-23.611,36.301 -24.437,35.954 -24.407,36.868L-23.642,36.868ZM-21.345,34.57C-21.981,34.372 -21.766,35.831 -21.802,36.256C-21.282,35.992 -21.069,35.005 -21.345,34.57M-6.444,33.647C-6.326,33.755 -5.46,33.471 -5.526,33.113C-5.59,32.604 -6.63,33.412 -6.444,33.647M-23.217,33.793C-23.344,33.648 -24.416,34.51 -24.519,34.713C-25.028,36.43 -22.263,35.186 -23.217,33.793M-4.154,34.823C-4.083,34.736 -3.921,33.996 -3.967,33.94C-4.582,33.974 -5.374,35.507 -4.154,34.823M-21.572,32.273C-21.917,32.344 -21.819,33.037 -21.573,33.036C-21.358,33.035 -21.005,32.156 -21.572,32.273M-25.634,32.732C-25.549,32.224 -25.401,31.671 -25.709,31.201C-26.059,31.534 -26.111,32.515 -25.634,32.732M-5.594,30.838C-6.069,30.68 -7.704,31.552 -7.977,32.257C-8.421,34.056 -6.591,31.29 -6.308,31.132C-6.619,32.603 -5.191,30.854 -5.594,30.838M-9.055,32.865C-9.879,32.276 -10.001,34.496 -9.173,33.591C-9.114,33.429 -8.973,32.946 -9.055,32.865M-8.169,30.282C-8.443,30.03 -9.424,31.028 -9.241,31.2C-9.05,31.378 -7.943,30.49 -8.169,30.282M-23.503,31.46C-24.692,31.49 -25.542,33.815 -23.412,32.692C-23.412,32.692 -22.315,31.43 -23.503,31.46M-25.634,31.046C-25.591,30.997 -25.803,29.809 -26.245,29.975C-26.3,30.309 -26.038,31.225 -25.634,31.046M-26.016,29.058L-26.244,29.285L-26.016,29.513C-26.016,29.513 -26.101,29.822 -25.789,29.285C-25.476,28.749 -26.016,29.058 -26.016,29.058M-19.406,28.105C-20.568,29.158 -22.34,29.365 -22.688,30.885C-22.009,31.436 -19.036,28.865 -19.406,28.105M-7.726,26.878C-7.808,26.812 -8.915,27.676 -8.881,28.044C-8.073,28.533 -8.618,28.722 -9.216,29.319C-10.237,30.873 -8.708,30.355 -8.151,29.583C-7.649,28.721 -8.065,27.746 -7.726,26.878M-21.626,27.352C-21.338,26.247 -23.016,28.406 -22.875,29.055C-22.867,28.895 -20.566,27.286 -21.626,27.352M-5.563,26.299C-5.848,26.837 -7.091,27.621 -6.406,28.442C-5.83,28.558 -5.05,26.541 -5.563,26.299M-24.868,27.064C-24.666,26.778 -25.024,25.616 -25.402,25.686C-25.878,25.901 -25.108,26.839 -24.868,27.064M-22.263,25.379C-22.925,25.248 -24.227,28.52 -22.887,27.271C-22.941,26.49 -22.425,26.025 -22.263,25.379M-19.659,23.235C-20.152,23.134 -20.69,23.477 -20.73,24L-19.659,23.235ZM-14.828,22.138C-15.31,21.942 -16.373,22.691 -16.359,23.209C-16.293,23.279 -14.5,22.418 -14.828,22.138M-23.795,22.622C-24.253,22.168 -24.126,23.674 -23.796,22.849C-23.777,22.802 -23.787,22.63 -23.795,22.622M-10.622,23.116C-11.15,20.316 -13.497,21.897 -14.816,23.116C-15.521,23.777 -17.413,26.25 -17.982,26.915C-19.114,29.808 -18.555,31.527 -17.903,34.512C-12.647,34.784 -9.017,29.444 -10.068,25.332L-10.622,23.116ZM-6.453,25.602C-6.5,24.714 -6.73,24.071 -7.524,23.611C-7.503,24.549 -7.795,25.921 -6.453,25.602M-5.259,22.162C-5.575,21.856 -6.012,22.637 -5.87,22.774C-5.554,23.08 -5.117,22.299 -5.259,22.162M-20.93,21.667C-21.417,21.667 -24.226,25.034 -22.841,24.304C-22.143,23.407 -20.393,23.049 -20.93,21.667M-6.331,21.549C-6.75,21.133 -7.413,22.555 -6.561,22.314C-6.33,22.249 -6.253,21.627 -6.331,21.549M-19.811,22.161C-19.514,22.459 -18.866,21.671 -19.43,21.549C-19.75,21.481 -19.926,22.046 -19.811,22.161M-8.468,21.613C-6.758,21.764 -8.892,19.571 -9.401,19.789C-9.488,19.872 -8.553,21.556 -8.468,21.613M-10.965,19.74C-12.587,19.801 -11.985,20.933 -11.039,20.44C-10.59,20.206 -10.442,19.72 -10.965,19.74M-19.659,19.558C-19.907,19.224 -19.819,19.486 -19.964,19.558C-20.11,19.63 -19.964,20.17 -19.964,20.17C-19.964,20.17 -19.831,20.231 -19.659,20.17C-19.487,20.108 -19.411,19.891 -19.659,19.558M-21.352,20.158C-19.376,18.319 -23.72,20.127 -23.111,21.545C-22.69,21.836 -21.689,20.451 -21.352,20.158M-6.642,19.397C-6.536,19.254 -6.739,19.042 -6.866,18.947C-8.784,19.913 -8.126,20.799 -6.642,19.397M-5.588,24.807C-5.757,24.593 -6.107,25.571 -5.663,25.571C-5.397,25.571 -5.467,24.959 -5.588,24.807M-21.829,17.543C-21.449,15.857 -23.34,17.77 -23.335,18.178C-23.12,18.372 -21.94,17.704 -21.829,17.543M-8.508,18.555C-8.24,18.363 -8.584,18.25 -8.584,18.25C-8.817,18.317 -9.053,18.42 -8.966,18.709C-8.966,18.709 -8.775,18.746 -8.508,18.555M-4.557,19.282C-4.076,19.092 -5.547,17.751 -5.935,18.361C-6.322,18.971 -5.038,19.471 -4.557,19.282M-23.487,21.353C-23.235,18.461 -23.902,17.758 -24.692,20.968C-24.132,20.867 -23.856,20.658 -23.504,21.394L-23.487,21.353ZM-21.804,15.422C-22.402,15.043 -24.302,17.267 -22.719,16.42C-22.566,16.315 -21.61,15.602 -21.804,15.422M-23.795,15.422C-24.008,15.204 -24.451,15.997 -24.408,16.033C-24.12,16.274 -23.564,15.658 -23.795,15.422M-23.773,14.637C-23.393,15.061 -22.827,13.226 -23.39,13.261C-23.692,13.28 -24.044,14.334 -23.773,14.637M-22.263,13.429C-22.263,13.429 -21.828,13.049 -22.339,12.97C-22.85,12.892 -22.698,13.517 -22.263,13.429M-24.561,13.583C-24.45,13.019 -24.887,12.824 -25.173,13.355C-25.256,13.746 -24.676,13.723 -24.561,13.583M-25.634,12.664C-25.486,12.004 -26.088,11.981 -26.397,12.434C-26.392,12.655 -25.831,12.868 -25.634,12.664M-23.886,12.161C-23.22,11.844 -23.412,10.567 -24.115,10.784C-24.818,11.001 -24.553,12.478 -23.886,12.161M-21.497,12.357C-21.278,11.93 -21.912,11.189 -22.262,11.823C-22.336,12.146 -21.63,12.506 -21.497,12.357M-25.634,9.907C-25.791,9.749 -26.249,10.212 -26.092,10.365C-25.843,10.608 -25.393,10.147 -25.634,9.907M-23.029,10.671C-22.128,11.045 -21.344,9.306 -22.035,8.834C-22.74,8.889 -22.561,10.354 -23.029,10.671M-23.397,7.988C-24.303,7.954 -23.877,9.241 -24.162,9.825C-23.541,9.968 -23.298,8.095 -23.397,7.988M-21.956,7.15C-22.181,6.964 -22.76,7.676 -22.568,7.914C-22.474,8.031 -21.898,7.198 -21.956,7.15M-24.565,5.538C-24.896,5.379 -25.512,5.968 -25.331,6.149C-25.183,6.296 -24.634,5.754 -24.565,5.538M-24.482,2.491C-24.667,1.511 -25.029,1.985 -24.94,2.491C-24.852,2.996 -24.297,3.47 -24.482,2.491M-22.298,4.501C-22.713,4.803 -24.296,6.161 -24.218,6.664C-23.405,6.793 -21.698,5.564 -22.298,4.501M-23.642,3.626C-24.133,3.584 -25.75,4.819 -25.786,5.309C-25.34,4.926 -23.637,4.522 -23.642,3.626M-23.638,-1.314C-24.16,-1.708 -25.316,-0.387 -24.301,-0.521C-24.126,-0.609 -23.441,-1.132 -23.638,-1.314M-22.57,3.013C-22.797,2.808 -23.525,3.408 -23.334,3.625C-23.261,3.48 -22.213,3.323 -22.57,3.013M-29.581,2.123C-28.47,1.663 -26.433,1.636 -25.985,0.241C-27.2,0.83 -29.154,0.83 -29.581,2.123M-23.949,1.02C-23.638,0.913 -24.024,0.562 -24.024,0.562C-24.317,0.76 -24.259,1.127 -23.949,1.02M-22.368,-4.971C-21.814,-4.957 -20.86,-4.904 -20.466,-3.473C-18.542,3.517 -19.126,10.939 -19.126,16.345C-19.126,27.651 -3.984,0.401 -1.905,20.244C-1.511,24.001 -4.911,31.904 -4.911,31.904C-4.911,31.904 -2.379,30.403 1.175,33.957C7.95,40.732 -0.58,49.309 -3.421,49.23C-4.109,49.211 -4.728,49.071 -3.775,47.028C1.252,36.242 -12.303,33.752 -15.281,38.706C-16.525,40.81 -13.853,43.984 -16.194,45.886C-18.098,47.332 -20.715,50.035 -23.228,48.696C-25.269,47.344 -26.913,45.122 -27.79,42.927C-29.089,39.747 -27.185,40.274 -26.832,33.283C-26.479,26.292 -25.2,2.067 -32.047,5.329C-34.418,6.205 -35.065,4.908 -33.857,3.148C-31.129,-0.793 -26.951,-2.042 -23.91,-5.001C-23.642,-5.261 -23.057,-5.058 -22.368,-4.971" style="fill:rgb(35,31,32);fill-rule:nonzero;"/>
        </g>
        <g transform="matrix(1,0,0,1,436.2098,115.2322)">
            <path d="M0,33.187C-0.216,33.001 -0.787,33.561 -0.699,33.637C-0.483,33.823 0.088,33.263 0,33.187M-3.155,30.361C-3.338,30.109 -3.815,30.701 -3.714,30.841C-3.531,31.093 -3.053,30.501 -3.155,30.361M-1.957,31.53C-1.98,31.508 -2.494,31.2 -2.514,31.226C-2.802,31.825 -1.667,32.08 -1.957,31.53M-1.196,32.062C-1.299,31.974 -1.816,32.075 -1.894,32.289C-2.103,32.868 -1.02,32.214 -1.196,32.062M-3.299,32.021C-3.972,33.146 -4.241,31.241 -4.76,31.738C-4.451,32.1 -4.042,32.957 -3.801,33.276C-3.446,33.267 -2.204,32.353 -2.733,32.393C-3.129,32.524 -3.209,32.216 -3.299,32.021M-4.757,33.625C-7.538,28.234 -8.959,30.275 -4.749,33.681L-4.757,33.625ZM-4.395,29.942C-4.306,29.612 -5.147,28.966 -5.233,29.418C-5.078,29.88 -4.902,30.223 -4.395,29.942M-6.148,29.569C-6.528,29.242 -6.787,30.053 -6.359,29.868C-6.292,29.839 -6.104,29.606 -6.148,29.569M-0.7,29.266C-1.165,29.158 -0.919,29.62 -0.981,29.941C-1.918,31.851 0.126,30.527 -0.7,29.266M-6.427,28.813C-5.892,29.257 -5.036,27.628 -5.171,27.457C-5.258,27.346 -6.498,28.754 -6.427,28.813M-2.161,26.513C-2.671,26.614 -3.871,28.597 -3.053,28.941C-2.666,29.269 -2.574,28.958 -2.635,28.529C-2.447,27.888 -1.608,27.226 -2.161,26.513M-2.255,24.402C-2.733,24.381 -4.209,26.353 -4.749,26.811C-3.998,27.485 -2.542,25.048 -2.255,24.402M-3.197,23.69C-3.116,23.502 -2.93,22.76 -3.149,22.802C-3.125,22.672 -3.6,23.21 -3.606,23.169C-6.034,23.994 -7.157,28.017 -4.131,24.535C-4.285,23.897 -3.399,24.155 -3.197,23.69M-1.145,21.666C-3.735,23.325 -2.417,25.03 -1.088,21.684L-1.145,21.666ZM-3.493,21.578C-3.639,21.417 -4.201,22.017 -4.051,22.18C-3.83,22.422 -3.268,21.827 -3.493,21.578M-2.181,20.291C-2.608,20.158 -2.68,21.108 -2.739,21.345C-2.305,21.262 -2.214,20.66 -2.181,20.291M-2.865,17.405C-3.825,17.554 -5.294,19.996 -4.998,21.121C-3.855,20.832 -1.979,18.618 -2.865,17.405M18.757,18.127C18.851,17.969 18.912,17.369 18.742,17.383C18.636,17.414 18.471,17.746 18.232,17.881C17.767,18.1 17.031,18.395 17.041,18.928C16.766,19.274 17.808,18.921 17.762,18.977C18.279,19.251 17.623,19.868 17.554,20.464C17.396,20.942 17.734,21.363 17.999,21.318C18.696,20.994 18.841,18.887 18.733,18.247L18.757,18.127ZM17.563,16.557C17.731,16.419 18.043,15.66 17.674,15.7C17.331,16.128 16.177,17.347 17.563,16.557M19.001,15.848C19.03,15.812 18.933,14.908 18.724,14.945C18.592,15.406 18.425,15.809 19.001,15.848M17.047,15.547C17.456,15.459 18.013,14 17.533,13.889C16.692,14.048 17.124,14.882 17.047,15.547M-3.322,14.989C-3.117,11.35 -6.611,15.771 -5.312,17.246C-3.823,17.396 -4.193,15.274 -3.322,14.989M-0.528,13.769C-0.102,13.646 -0.016,13.237 -0.517,13.004C-2.526,12.781 -1.161,16.115 -0.528,13.769M18.737,12.181C18.529,12.119 17.581,13.644 18.19,14.144C18.395,14.063 18.27,13.5 18.301,13.297C19.015,13.421 18.944,12.243 18.737,12.181M17.045,11.929C16.315,11.847 16.374,12.7 16.348,13.285C16.552,13.221 17.248,12.659 17.045,11.929M17.325,11.478C17.191,11.635 17.373,11.919 17.535,11.927C17.696,11.934 18.074,11.637 18.022,11.401C17.969,11.165 17.46,11.322 17.325,11.478M-2.023,11.098C-1.923,10.995 -2.061,10.214 -2.37,10.345C-3.158,10.679 -2.335,11.416 -2.023,11.098M17.045,10.422C16.774,10.113 15.492,12.113 16.69,11.162L17.045,10.422ZM-5.029,12.23C-3.982,12.327 -4.538,10.995 -4.348,10.376C-5.192,9.04 -5.09,11.738 -5.029,12.23M19.001,9.215C18.863,9.051 18.151,9.879 17.884,9.82C18.871,11.414 19.59,10.897 19.001,9.215M17.025,9.336C16.603,7.729 15.074,11.366 16.408,10.008C16.589,9.496 17,9.658 17.215,9.354C17.779,9.287 17.059,8.847 17.025,9.336M-6.908,11.195C-5.32,12.419 -5.25,9.45 -6.227,8.949C-6.884,8.972 -7.408,10.721 -6.908,11.195M16.347,8.311C16.222,8.101 16.072,8.378 15.928,8.311C15.785,8.244 15.812,8.438 15.928,8.611C16.045,8.785 16.512,8.48 16.347,8.611C16.181,8.743 16.471,8.521 16.347,8.311M13.413,8.01C13.159,7.787 12.454,8.58 13.195,8.302C13.275,8.272 13.459,8.051 13.413,8.01M13.692,7.256C13.492,7.104 12.954,7.273 12.855,7.481C12.755,7.688 13.324,7.846 13.551,7.86C13.779,7.873 13.892,7.408 13.692,7.256M12.435,7.256C12.359,7.033 12.079,7.768 12.226,7.707C12.373,7.645 12.511,7.48 12.435,7.256M14.81,6.653C14.611,6.506 14.53,7.348 14.81,7.255C15.089,7.161 15.008,6.8 14.81,6.653M11.151,6.934C11.516,7.024 11.583,6.714 11.082,6.784C9.767,6.006 12.504,6.215 12.471,5.934C12.438,5.654 7.406,6.01 11.151,6.934M16.544,5.619C16.224,4.718 15.513,5.025 14.884,5.277C14.335,5.511 13.982,5.809 14.267,5.933C15.13,5.672 15.713,5.979 16.516,6.428C16.828,6.645 16.589,7.123 16.563,7.488C16.505,7.96 17.095,7.938 17.181,7.621C17.389,7.146 16.744,5.773 16.835,5.959C16.926,6.145 16.544,5.619 16.544,5.619M16.188,34.535C15.469,35.629 12.424,38.09 13.793,34.268C17.207,24.12 14.655,0.639 2.422,12.184C-1.466,17.299 1.993,25.621 2.371,31.719C2.303,32.707 1.706,33.722 0.976,34.434C-2.948,38.101 -5.906,36.498 -8.593,32.194C-9.512,30.789 -9.934,29.1 -9.645,27.432C-8.926,22.764 -8.999,16.876 -9.927,12.684C-10.233,11.223 -11.48,11.739 -12.273,12.197C-13.188,12.756 -14.044,12.848 -13.249,11.382C-11.663,8.374 -4.741,-1.671 -1.688,1.726C-0.725,2.684 -0.298,7.155 0.29,8.259C1.345,9.923 2.984,8.011 4.126,7.266C22.841,-4.914 25.242,16.594 17.305,33.023L16.188,34.535Z" style="fill:rgb(35,31,32);fill-rule:nonzero;"/>
        </g>
        <g transform="matrix(1,0,0,1,355.0342,140.2032)">
            <path d="M0,-14.732C-0.113,-14.822 -0.68,-14.719 -0.765,-14.502C-0.995,-13.914 0.193,-14.578 0,-14.732M3.163,8.136C6.123,7.704 6.116,3.982 3.149,6.733C0.044,3.322 2.152,6.776 3.163,8.136M2.123,8.028C-0.949,2.525 -2.465,4.645 2.133,8.086L2.123,8.028ZM6.726,5.08C6.823,4.743 5.901,4.088 5.807,4.547C5.976,5.029 6.185,5.36 6.726,5.08M0.599,3.907C0.182,3.575 -0.103,4.399 0.368,4.211C0.441,4.182 0.646,3.945 0.599,3.907M0.292,1.762C-0.321,1.67 -0.184,2.493 0.292,2.374L0.292,1.762ZM5.053,3.798C6.138,3.736 5.665,2.517 5.72,1.726C5.715,0.745 5.591,-1.846 5.003,0.407C5.344,1.534 5.222,2.768 5.053,3.798M4.312,-3.748C3.019,-2.001 3.655,1.441 3.742,3.46C5,3.489 3.891,-2.496 4.356,-3.763L4.312,-3.748ZM2.867,3.619C2.515,3.283 2.362,4.401 2.789,4.23C3.03,4.134 2.981,3.729 2.867,3.619M2.289,-4.046C3.065,-2.089 0.61,0.351 1.83,2.225C1.901,2.216 2.043,2.199 2.114,2.19C2.479,1.227 2.278,-0.608 2.722,-1.793C3.187,-2.95 4.183,-4.096 3.278,-5.025C2.876,-5.377 2.014,-4.615 2.223,-4.218L2.289,-4.046ZM3.948,-5.439C4.188,-5.679 3.6,-6.336 3.49,-5.82C3.435,-5.565 3.845,-5.336 3.948,-5.439M5.914,-9.422C5.43,-9.425 5.48,-7.982 5.389,-7.718C4.997,-7.584 4.556,-7.418 4.758,-6.797C5.568,-7.795 5.066,-7.092 5.792,-6.782C6.017,-7.27 6.142,-9.248 5.914,-9.422M2.591,-5.899C2.895,-5.548 3.721,-7.313 3.127,-7.275C2.842,-7.257 2.498,-6.007 2.591,-5.899M5.524,-5.599C5.226,-5.489 4.901,-4.771 5.181,-4.441C5.246,-4.323 5.443,-4.334 5.548,-4.271C5.575,-4.219 5.627,-4.113 5.654,-4.061C5.757,-3.511 5.061,-2.27 5.849,-1.984C6.093,-3.032 6.105,-4.595 5.584,-5.583L5.524,-5.599ZM7.645,-10.575C7.16,-10.833 5.818,-8.277 7.152,-9.448C6.855,-9.883 7.794,-10.211 7.645,-10.575M19.768,-9.421C19.651,-9.541 18.711,-9.265 18.85,-8.734C19.412,-8.032 19.901,-8.841 19.768,-9.421M8.411,-11.494C8.201,-11.739 7.714,-10.824 7.8,-10.729C7.836,-10.689 8.686,-11.174 8.411,-11.494M3.816,-9.727C3.745,-9.669 4.064,-9.469 4.091,-9.326C3.386,-6.156 6.169,-10.944 3.816,-9.727M21.301,-10.034C20.476,-10.295 20.545,-9.429 20.916,-9.576C21.01,-9.613 21.265,-9.901 21.301,-10.034M1.641,-9.568C1.685,-8.912 1.369,-4.897 2.331,-7.171C2.38,-7.886 2.498,-8.493 3.381,-8.385C4.57,-9.341 1.647,-10.918 1.641,-9.568M21.853,-7.767C22.462,-8.481 23.746,-9.45 24.264,-10.342C24.793,-11.256 24.336,-11.245 23.685,-10.671C22.782,-9.973 22.273,-8.702 21.382,-8.066C20.801,-7.802 19.984,-7.592 19.521,-7.047C19.247,-6.635 19.514,-6.171 19.934,-6.33C20.492,-6.427 21.335,-7.34 21.739,-7.657L21.853,-7.767ZM23.598,-12.485L22.283,-12.183C22.494,-11.476 21.871,-11.087 21.76,-10.648C22.365,-10.148 23.878,-12.219 23.598,-12.485M3.815,-12.179C3.669,-12.6 4.2,-13.392 3.664,-13.557C3.557,-13.123 3.262,-12.435 3.815,-12.179M1.366,-12.486C2.041,-12.292 1.696,-13.554 1.442,-13.709C1.086,-13.712 1.293,-12.575 1.366,-12.486M23.768,-13.921C23.693,-14.081 23.045,-13.878 23.011,-13.626C22.936,-13.06 23.91,-13.617 23.768,-13.921M-3.384,-12.64C-3.186,-12.452 -1.632,-13.57 -2.006,-14.018C-2.07,-14.094 -3.621,-12.865 -3.384,-12.64M20.883,-14.995C15.206,-12.298 17.728,-7.986 20.955,-14.988L20.883,-14.995ZM2.743,-13.711C2.643,-14.24 3.04,-14.797 2.668,-15.243C2.319,-14.913 2.333,-13.646 2.743,-13.711M19.904,-16.312C19.799,-16.835 17.205,-15.199 17.388,-14.767C17.571,-14.335 20.008,-15.788 19.904,-16.312M23.105,-16.059C22.589,-16.42 21.548,-15.734 22.654,-15.423C23.293,-15.244 23.196,-15.995 23.105,-16.059M17.603,-16.775C17.077,-17.146 15.406,-15.853 16.73,-16.191C16.859,-16.236 17.929,-16.506 17.603,-16.775M1.417,-15.417C1.917,-15.195 3.523,-17.597 1.642,-17.089C1.642,-17.089 0.917,-15.639 1.417,-15.417M22.067,-17.716C22.584,-19.123 19.981,-17.456 21.412,-17.524C21.525,-17.552 21.549,-16.31 22.067,-17.716M17.562,-18.095C18.644,-18.744 17.488,-18.399 17.488,-18.399C15.49,-17.573 16.481,-17.447 17.562,-18.095M20.668,-19.074C20.978,-19.312 19.374,-20.359 18.983,-19.991L19.441,-19.84C19.441,-19.84 18.62,-19.376 19.136,-18.615C19.651,-17.854 20.668,-19.074 20.668,-19.074M22.755,-20.753C29.606,-15.752 27.839,-6.223 19.801,-3.444C18.62,-3.095 17.454,-3.436 17.082,-4.634C16.518,-6.379 16.951,-8.944 16.079,-10.631C14.406,-14.121 11.286,-10.793 10.12,-8.603C7.739,-4.89 8.704,-0.814 9.596,3.165C10.716,6.571 9.586,8.684 6.437,10.417C4.786,11.547 3.051,11.926 1.357,10.499C-1.259,8.376 -4.002,4.886 -3.021,1.596C-1.9,-1.656 -2.656,-5.513 -3.275,-8.815C-3.455,-9.733 -3.931,-10.287 -4.961,-10.335C-6.078,-10.367 -8.137,-10.462 -7.907,-12.033C-7.007,-14.427 -0.754,-20.201 1.064,-21.8C7.156,-26.658 5.435,-20.041 6.687,-13.225C7.09,-12.23 7.714,-12.697 8.309,-13.102C12.441,-16.465 17.238,-23.634 22.475,-20.929L22.755,-20.753Z" style="fill:rgb(35,31,32);fill-rule:nonzero;"/>
        </g>
        <g transform="matrix(1,0,0,1,548.1884,127.3572)">
            <path d="M0,21.947C-0.129,21.767 -0.425,21.377 -0.66,21.74C-0.895,22.103 -0.023,22.861 0,21.947M5.455,18.964C5.176,18.256 4.355,19.555 4.004,19.702C3.31,19.991 2.269,20.862 3.678,20.623C4.145,19.927 4.866,19.533 5.455,18.964M7.523,17.094C7.211,16.882 6.527,17.735 6.726,17.89C7.224,18.277 7.47,17.434 7.523,17.094M-3.699,18.318C-4.237,19.438 -3.158,20.44 -2.328,21.126C-2.611,20.119 -3.176,19.223 -3.699,18.318M-4.759,15.957C-6.227,15.253 -4.623,17.33 -4.329,17.362C-4.012,17.398 -5.155,15.622 -4.243,16.277C-3.458,15.537 -4.516,13.897 -4.713,15.966C-4.728,15.952 -4.749,15.962 -4.759,15.957M7.748,14.899C7.185,14.847 6.358,15.579 6.131,16.042C6.861,16.655 7.649,15.553 7.748,14.899M8.528,13.719C8.667,12.874 7.996,13.496 8.019,13.882C8.025,13.972 8.523,13.747 8.528,13.719M9.096,11.459C9.154,11.275 9.073,11.062 8.9,11.001C8.728,10.941 8.68,11.086 8.679,11.235C8.677,11.383 8.935,11.487 9.096,11.459M-8.579,6.068C-8.68,5.915 -9.325,6.334 -9.241,6.447C-8.851,6.971 -8.141,6.729 -8.579,6.068M12.379,8.021C12.05,7.611 11.163,8.837 11.232,8.886C11.874,9.338 12.525,8.668 12.379,8.021M-7.639,7.84C-8.294,8.378 -7.296,9.228 -7.214,9.898C-7.04,11.33 -7.254,12.866 -6.027,13.917C-5.736,11.791 -6.537,9.694 -7.515,7.819C-7.549,7.831 -7.613,7.818 -7.639,7.84M11.524,6.84C10.137,7.004 9.11,7.997 8.337,9.063C9.747,9.142 11.441,8.333 11.524,6.84M13.656,5.199C13.247,4.817 11.815,6.393 12.554,6.69C13.023,6.878 14.064,5.58 13.656,5.199M-4.616,6.233C-4.565,5.855 -4.51,4.824 -5.209,5.134C-5.364,5.202 -5.209,6.617 -4.616,6.233M11.926,4.642C5.694,7.288 9.909,7.567 11.997,4.651C11.973,4.648 11.95,4.645 11.926,4.642M13.525,3.563C13.015,3.856 12.984,4.604 13.658,3.924C13.735,3.846 14.036,3.27 13.525,3.563M-8.98,3.518C-9.413,3.218 -9.336,4.414 -9.145,4.599C-8.638,4.485 -8.548,3.818 -8.98,3.518M10.617,3.394C10.466,3.245 9.175,4.242 9.853,4.453C10.29,4.589 11.046,3.817 10.617,3.394M9.223,1.926C9.494,0.444 7.789,2.452 8.862,2.063C8.936,2.036 9.216,1.962 9.223,1.926M12.801,-0.259C12.371,-0.591 11.953,0.082 12.368,0.311C12.783,0.539 12.912,-0.173 12.801,-0.259M-3.826,0.941C-4.058,0.889 -4.289,0.836 -4.521,0.783C-4.538,2.561 -3.397,2.919 -3.826,0.941M11.093,-0.081C10.883,-0.305 9.924,0.521 10.206,0.811C10.487,1.1 11.304,0.144 11.093,-0.081M-9.5,0.271C-9.079,0.912 -9.113,2.187 -8.172,2.221C-7.939,1.435 -8.444,-0.228 -9.5,0.271M-11.706,-1.341C-11.287,-1.939 -12.051,-3.938 -12.444,-2.98C-12.285,-2.385 -11.943,-1.903 -11.706,-1.341M-7.267,0.889C-7.931,1.663 -7.029,6.319 -6.181,6.989C-5.774,6.562 -5.673,6.034 -5.842,5.477C-5.954,5.106 -6.331,4.989 -6.357,4.523C-6.43,3.179 -5.987,1.997 -7.186,0.928C-7.204,0.911 -7.254,0.875 -7.267,0.889M12.606,3.499C12.695,2.564 11.345,0.513 11.78,2.311C11.545,3.153 11.697,3.426 12.606,3.499M9.568,-1.05C5.216,0.069 8.229,2.997 9.609,-1.047C9.598,-1.048 9.578,-1.052 9.568,-1.05M6.863,-1.028C6.527,-1.135 5.979,-0.477 6.387,-0.289C6.794,-0.101 6.844,-0.757 6.863,-1.028M8.795,-1.958C8.753,-2.05 7.297,-1.481 7.637,-1.227C8.147,-0.846 9.083,-1.325 8.795,-1.958M11.797,-2.17C10.757,-1.909 9.309,-1.452 10.204,-0.275C10.809,-0.196 10.808,-1.046 11.137,-1.298C11.466,-1.55 12.23,-1.677 11.797,-2.17M-5.111,-2.781C-6.132,-2.934 -5.689,-1.814 -4.9,-1.91C-4.697,-1.934 -4.973,-2.761 -5.111,-2.781M11.979,-2.617C12.154,-3.207 11.325,-3.257 10.951,-3.064C10.9,-2.764 11.946,-2.505 11.979,-2.617M12.2,-3.699C12.536,-4.135 11.248,-4.606 11.154,-4.053C11.11,-3.8 12.055,-3.51 12.2,-3.699M-7.969,16.819C-10.238,12.762 -21.863,-10.334 -12.006,-8.348C-7.955,-7.853 -2.871,-4.018 -2.218,-0.042C-1.202,6.143 -5.16,15.958 0.534,20.139C6.675,18.718 7.358,9.302 7.596,4.152C7.34,3.028 6.728,2.189 5.933,1.351C3.57,-1.246 5.975,-4.706 10.29,-7.278C14.605,-9.85 15.637,0.958 14.786,6.215C14.526,7.827 13.736,9.281 13.054,10.432C7.447,19.902 1.074,32.281 -7.854,17.011C-7.89,16.949 -7.951,16.852 -7.969,16.819" style="fill:rgb(35,31,32);fill-rule:nonzero;"/>
        </g>
        <g transform="matrix(1,0,0,1,230.9034,121.9748)">
            <path d="M0,25.404C-1.254,25.263 -1.555,26.462 -0.162,26.194C-0.697,25.535 -0.339,25.933 0,25.404M1.066,25.648C1.066,25.648 0.92,25.381 0.607,25.648C0.295,25.914 0.608,26.107 0.608,26.107C0.843,26.035 1.176,25.975 1.066,25.648M2.602,25.719C2.999,25.717 3.506,24.986 2.984,24.802C2.77,24.809 2.457,25.555 2.602,25.719M15.16,22.431C14.95,22.227 14.513,22.855 14.701,23.042C14.96,23.299 15.245,22.513 15.16,22.431M-1.418,24.034C-1.793,23.712 -2.509,24.178 -2.619,24.78C-2.745,26.549 -0.555,25.099 -1.418,24.034M18.665,23.178C18.693,23.159 18.846,22.66 18.874,22.541C19.164,21.302 17.112,23.752 18.665,23.178M9.304,21.505C8.99,21.463 3.009,25.477 5.471,24.729C6.543,24.181 8.937,22.455 9.304,21.505M-3.977,22.789C-4.639,19.387 -4.632,23.294 -3.721,24.394C-2.896,24.635 -3.527,22.898 -3.977,22.789M-2.366,21.052C-2.565,20.825 -3.329,21.699 -2.746,21.817C-2.403,21.886 -2.133,21.316 -2.366,21.052M14.925,19.517C15.051,18.62 14.187,19.296 14.387,19.794C14.587,20.292 14.798,20.414 14.925,19.517M-3.53,19.672C-3.087,19.226 -4.516,18.718 -4.294,19.288C-4.215,19.492 -3.675,19.818 -3.53,19.672M18.684,18.906C18.899,19.125 19.546,18.244 19.065,18.141C18.69,18.06 18.581,18.8 18.684,18.906M-2.151,16.915C-2.458,16.932 -3.501,17.379 -3.528,17.756C-3.321,18.312 -1.958,17.211 -2.151,16.915M19.296,15.996C19.03,15.73 18.112,16.648 18.378,16.914C18.689,17.225 19.607,16.307 19.296,15.996M12.402,15.537C11.884,15.637 10.28,16.723 10.565,17.374C11.003,17.139 12.34,16.057 12.402,15.537M0.108,16.911C-1.062,17.715 -2.88,18.824 -1.06,20.214C1.508,23.813 2.019,24.746 6.16,22.125C6.691,21.83 6.716,21.795 7.604,21.326C9.943,20.095 7.68,17.592 6.729,15.381C6.098,14.322 6.178,13.054 5.187,12.946C3.451,12.858 1.581,15.792 0.303,16.768L0.108,16.911ZM18.236,13.792C19.706,11.722 14.648,15.878 14.084,16.782C15.522,16.405 17.099,14.778 18.236,13.792M8.631,15.264C9.728,15.355 14.624,10.248 10.983,12.477C10.243,13.17 8.22,14.243 8.631,15.264M10.746,15.244C17.114,12.088 14.923,9.404 10.712,15.247L10.746,15.244ZM10.166,11.25C8.749,11.528 6.277,15.412 9.169,12.786C9.487,12.398 10.948,11.55 10.166,11.25M5.662,11.706C6.104,11.26 4.676,10.752 4.897,11.322C4.977,11.526 5.517,11.851 5.662,11.706M19.143,10.788C18.466,10.658 18.017,11.189 18.759,11.4L19.143,10.788ZM5.303,8.451C4.187,8.669 3.005,9.803 2.429,10.729C3.096,11.549 5.126,9.064 5.303,8.451M9.31,8.924C12.253,6.121 7.394,8.48 7.863,10.203C7.816,10.693 6.828,10.534 7.279,11.189C8.176,11.48 9.051,9.503 9.31,8.924M16.232,7.569C16.462,6.96 13.287,5.039 14.394,6.574C14.729,6.956 15.716,8.028 16.232,7.569M17.077,5.732C16.477,5.86 17.238,7.263 17.84,7.11C18.562,6.927 17.365,5.671 17.077,5.732M12.556,6.343C12.231,6.008 12.111,4.953 11.691,4.682C9.951,4.198 12.078,6.441 12.556,6.343M13.884,3.78C14.181,4.078 14.829,3.29 14.265,3.169C13.945,3.1 13.769,3.665 13.884,3.78M3.364,1.596C3.106,1.357 2.15,2.242 2.292,2.36C2.625,2.638 3.584,1.8 3.364,1.596M16.518,3.627C16.765,3.39 15.752,2.407 15.676,2.404C15.007,2.542 16.039,3.996 16.518,3.627M8.012,-0.109C7.421,-0.139 6.901,-0.633 6.327,-0.416C6.239,0.142 7.877,0.378 8.012,-0.109M12.649,0.41C12.341,1.086 14.159,2.752 14.028,1.56C13.685,1.12 13.061,0.805 12.649,0.41M11.331,-1.315C10.237,-1.728 9.141,-0.258 11.24,-0.845C11.397,-0.916 11.35,-1.299 11.331,-1.315M12.745,-1.198C12.976,-0.907 13.778,-0.931 13.608,-1.524C13.403,-2.242 12.141,-1.961 12.745,-1.198M17.393,0.269C21.208,5.074 21.778,11.173 21.28,17.278C21.334,19.049 21.221,24.159 24.659,22.45C25.505,22.02 26.452,21.376 27.178,21.31C28.493,21.235 28.058,22.5 27.416,23.228C23.626,26.845 15.841,33.808 14.603,28.981C14.115,27.583 14.344,25.399 14.003,24.147C11.612,19.003 0.853,34.211 -3.97,27.554C-5.948,24.927 -6.747,21.083 -6.711,17.955C-6.1,13.008 8.55,5.001 9.279,2.834C9.499,2.296 8.693,2.162 6.958,2.439C4.312,2.816 1.694,3.669 -0.797,4.801C-8.932,7.967 9.48,-8.807 16.303,-2.102L17.393,0.269Z" style="fill:rgb(35,31,32);fill-rule:nonzero;"/>
        </g>
        <g transform="matrix(1,0,0,1,234.5759,106.3491)">
            <path d="M0,5.176C0.136,5.01 0.218,4.259 -0.075,4.259C-0.53,4.259 -0.192,5.41 0,5.176M4.137,2.266C3.536,2.02 1.785,2.67 1.84,3.49C2.512,3.549 4.342,3.385 4.137,2.266M1.686,0.886C2.298,1.129 4.677,-0.232 3.058,-0.117C2.606,0.021 1.914,0.453 1.686,0.886M4.655,4.66C2.023,8.753 -1.392,10.89 -1.649,4.105C-1.75,2.73 -1.724,1.311 -0.761,0.366C3.956,-5.714 6.839,-1.458 4.749,4.466L4.655,4.66Z" style="fill:rgb(35,31,32);fill-rule:nonzero;"/>
        </g>
        <g transform="matrix(1,0,0,1,248.5174,109.5799)">
            <path d="M0,-3.625C-0.316,-3.897 -1.204,-3.185 -0.918,-2.86C-0.877,-2.813 0.263,-3.399 0,-3.625M1.836,-2.36C2.277,-0.812 0.927,1.45 -0.372,2.575C-2.417,4.573 -4.734,4.664 -4.249,1.951C-3.717,0.606 -4.161,-0.468 -4.571,-1.746C-4.934,-6.095 2.265,-8.289 1.815,-2.664L1.836,-2.36Z" style="fill:rgb(35,31,32);fill-rule:nonzero;"/>
        </g>
        <g transform="matrix(1,0,0,1,318.5992,122.4195)">
            <path d="M0,25.472C0.225,25.247 -0.29,24.768 -0.841,24.476C-1.392,24.183 -1.269,24.685 -1.53,24.648C-1.639,25.172 -1.299,25.128 -1.136,25.234C-0.974,25.339 -0.521,25.829 0,25.472M-3.093,25.397C-3.293,25.225 -3.817,25.629 -3.706,25.725C-3.505,25.898 -2.982,25.493 -3.093,25.397M-5.906,24.585C-7.247,25.102 -4.155,26.812 -5.013,25.236C-5.139,25.065 -5.75,24.547 -5.906,24.585M-6.005,21.763C-6.926,22.389 -6.613,24.898 -5.403,23.499C-5.398,23.406 -6.107,22.152 -6.005,21.763M18.175,22.52C13.595,25.428 14.76,26.906 18.243,22.515L18.175,22.52ZM5.88,20.603C-0.872,23.394 1.081,26.121 5.947,20.606L5.88,20.603ZM-2.021,19.946C-2.105,19.857 -2.696,19.944 -2.785,20.194C-3.103,21.081 -1.745,20.239 -2.021,19.946M3.318,19.615C1.688,19.849 0.073,20.934 -1.204,21.87C0.376,21.657 2.096,20.466 3.391,19.608L3.318,19.615ZM15.597,19.451C15.209,19.382 14.814,19.663 14.832,20.11C14.832,20.11 15.189,20.49 15.596,20.111C16.003,19.733 15.597,19.451 15.597,19.451M15.525,22.345C15.525,22.345 15.688,22.349 15.524,21.684C15.36,21.02 15.066,21.851 15.066,21.851C15.139,22.086 15.18,22.465 15.525,22.345M4.792,19.3C4.738,19.042 4.522,17.425 3.875,17.981C3.769,18.6 3.952,19.638 4.792,19.3M-1.633,18.109C-4.672,17.912 -6.947,24.06 -3.931,19.793C-3.547,18.902 -1.938,19.249 -1.572,18.112L-1.633,18.109ZM15.562,18.259C15.934,17.901 15.575,17.353 15.068,17.972C14.417,18.768 15.123,18.68 15.562,18.259M5.334,17.469C5.367,18.345 6.321,17.857 5.716,17.305L5.334,17.469ZM25.244,18.637C25.693,18.041 24.383,18.547 24.562,19.134C24.562,19.134 24.795,19.233 25.244,18.637M15.657,14.739C15.488,14.552 14.488,15.458 14.739,15.729C15.004,16.014 15.922,15.03 15.657,14.739M-4.166,16.808C-4.259,16.708 -4.698,16.843 -4.777,17.057C-4.984,17.621 -3.861,17.137 -4.166,16.808M-0.642,16.806C-0.456,15.841 -2.24,16.646 -2.02,17.137C-1.881,17.264 -0.792,16.935 -0.642,16.806M18.934,15.944C18.14,14.843 15.459,20.918 17.673,18.016C18.695,17.536 19.727,17.045 18.934,15.944M-2.633,15.983C-2.749,15.88 -3.678,16.154 -3.399,16.477C-3.281,16.612 -2.518,16.085 -2.633,15.983M4.379,15.66C2.779,15.63 -1.14,16.834 -1.072,18.611C0.184,18.45 3.966,16.678 4.379,15.66M-2.327,14.661C-2.703,14.589 -3.943,15.363 -3.858,15.816C-3.58,15.905 -2.004,15.156 -2.327,14.661M4.668,14.54C5.31,16.511 6.733,13.436 4.414,14.331C4.352,14.593 4.607,14.455 4.668,14.54M-1.562,14.493L-1.791,14.167L-2.171,14.578L-1.869,14.825C-1.903,14.58 -1.789,14.457 -1.562,14.493M3.63,13.286C0.381,13.868 -2.841,19.022 2.665,14.89C-0.645,15.346 4.379,14.343 3.63,13.286M0.124,13.34C0.041,13.248 -0.745,13.555 -0.488,13.834C-0.301,14.037 0.328,13.566 0.124,13.34M2.53,12.832C-3.821,15.561 -2.282,17.004 2.584,12.842L2.53,12.832ZM4.566,10.861L4.491,10.036C3.81,10.383 4.33,11.113 4.566,10.861M17.334,11.776C17.032,11.757 16.663,11.725 16.568,12.104C16.87,12.123 17.239,12.155 17.334,11.776M5.449,10.987C5.871,9.951 5.777,9.113 4.72,9.707C4.989,10.134 4.538,11.778 5.449,10.987M17.343,8.008C16.522,7.931 17.008,9.715 17.649,9.493L17.343,8.008ZM17.762,6.347C18.886,7.756 18.517,5.832 17.335,5.583C15.339,4.143 16.741,6.46 17.762,6.347M-4.931,6.237C-4.49,6.628 -3.185,5.317 -3.247,5C-3.597,4.202 -4.943,5.949 -4.931,6.237M-0.531,2.892C-0.046,1.302 -2.068,3.345 -2.478,3.677C-2.149,4.229 -0.878,3.01 -0.531,2.892M4.702,4.814C4.68,3.958 5.435,3.314 6.003,2.76C7.109,0.569 1.758,4.907 4.702,4.814M16.184,2.729C15.66,2.262 15.097,-0.036 14.07,0.196C14.16,1.021 15.468,2.745 16.184,2.729M10.101,-0.845C8.973,-0.51 6.435,3.904 6.782,6.678C6.99,7.83 7.913,8.772 8.215,9.98C8.579,11.012 8.777,12.156 9.198,12.995C10.196,14.093 12.07,12.517 12.997,11.805C15.893,9.295 15.754,4.945 13.327,2.14C12.945,1.483 12.744,0.296 12.202,-0.115C11.358,-0.754 11.229,-1.179 10.101,-0.845M12.48,-2.658C12.382,-2.626 12.076,-2.307 12.076,-2.269C12.309,-1.669 13.69,-2.741 12.48,-2.658M12.649,-4.264C15.771,-2.049 19.757,2.101 20.503,5.858C20.781,10.343 20.083,15.004 20.214,19.484C20.234,20.172 19.826,21.376 20.22,21.993C20.673,22.703 21.587,22.045 21.983,21.489C22.381,20.932 22.581,20.259 22.93,19.671C23.806,18.196 25.686,17.397 27.356,17.789C27.518,17.827 27.705,17.902 27.739,18.065C27.769,18.212 27.658,18.346 27.555,18.455C26.113,19.973 24.906,21.756 23.482,23.332C22.358,24.575 21.209,25.8 19.989,26.951C18.862,28.014 17.316,29.645 15.682,29.882C13.335,30.222 13.465,26.154 13.357,24.718C13.163,22.141 13.179,18.479 10.975,16.678C10.4,16.208 9.698,15.939 8.963,15.849C7.495,15.669 6.811,17.091 6.927,18.656C7.318,22.127 6.611,23.808 4.05,25.754C1.643,27.235 -2.144,30.945 -4.972,30.079C-8.234,28.557 -7.654,22.428 -8.279,18.861C-8.96,13.89 -2.992,12.307 -0.185,9.43C0.866,8.157 1.02,6.151 -0.928,6.177C-2.477,5.861 -8.077,10.172 -8.184,7.95C-7.933,2.706 6.858,-5.473 12.42,-4.366L12.649,-4.264Z" style="fill:rgb(35,31,32);fill-rule:nonzero;"/>
        </g>
        <g transform="matrix(1,0,0,1,322.1724,106.3491)">
            <path d="M0,5.176C0.136,5.01 0.218,4.259 -0.075,4.259C-0.53,4.259 -0.192,5.41 0,5.176M4.137,2.266C3.536,2.02 1.785,2.67 1.84,3.49C2.512,3.549 4.342,3.385 4.137,2.266M1.686,0.886C2.298,1.129 4.677,-0.232 3.058,-0.117C2.606,0.021 1.914,0.453 1.686,0.886M4.655,4.66C2.023,8.753 -1.392,10.89 -1.649,4.105C-1.75,2.73 -1.724,1.311 -0.761,0.366C3.956,-5.714 6.839,-1.458 4.749,4.466L4.655,4.66Z" style="fill:rgb(35,31,32);fill-rule:nonzero;"/>
        </g>
        <g transform="matrix(1,0,0,1,336.1139,109.5799)">
            <path d="M0,-3.625C-0.316,-3.897 -1.204,-3.185 -0.918,-2.86C-0.877,-2.813 0.263,-3.399 0,-3.625M1.836,-2.36C2.277,-0.812 0.927,1.45 -0.372,2.575C-2.417,4.573 -4.734,4.664 -4.249,1.951C-3.717,0.606 -4.161,-0.468 -4.571,-1.746C-4.934,-6.095 2.264,-8.289 1.815,-2.664L1.836,-2.36Z" style="fill:rgb(35,31,32);fill-rule:nonzero;"/>
        </g>
        <g transform="matrix(1,0,0,1,392.0053,122.9172)">
            <path d="M0,21.761C-0.703,21.637 -0.579,22.226 0,22.09C0,22.09 0.703,21.885 0,21.761M0.667,24.351C0.718,24.037 -0.088,23.984 -0.598,24.035C-1.108,24.086 -0.823,24.455 -1.056,24.578C-0.838,25.067 -0.727,24.622 -0.504,24.63C-0.14,24.911 0.453,24.946 0.667,24.351M2.553,22.463C2.353,22.29 1.829,22.695 1.94,22.791C2.141,22.963 2.664,22.558 2.553,22.463M-3.637,23.075C-4.786,23.474 -1.944,25.426 -2.726,23.742C-2.853,23.57 -3.477,23.043 -3.637,23.075M18.217,22.542C18.805,21.639 17.551,21.604 17.639,22.496C17.714,22.784 18.078,22.704 18.217,22.542M-3.869,20.268C-4.575,20.436 -3.825,21.878 -3.825,21.878C-3.937,22.587 -3.424,22.407 -3.114,22.004C-3.114,22.004 -3.163,20.1 -3.869,20.268M19.569,19.608C19.11,19.417 17.819,20.813 18.038,21.093C18.105,21.179 19.498,19.817 19.569,19.608M8.167,19.109C1.415,21.899 3.368,24.626 8.234,19.111L8.167,19.109ZM0.266,18.452C0.182,18.362 -0.409,18.449 -0.499,18.7C-0.817,19.586 0.542,18.744 0.266,18.452M5.284,18.267C-0.071,19.741 1.152,21.633 5.354,18.277L5.284,18.267ZM18.291,19.41C18.291,19.41 18.63,19.344 18.291,18.75C17.952,18.156 17.832,18.916 17.832,18.916C17.906,19.152 17.946,19.53 18.291,19.41M7.078,18.285C7.481,17.662 6.696,17.462 6.696,17.462C5.949,18.109 6.676,18.908 7.078,18.285M8.08,15.854C8.36,15.905 8.583,15.683 8.538,15.36C8.285,15.434 7.973,15.519 8.08,15.854M0.654,16.614C-2.385,16.418 -4.66,22.565 -1.644,18.299C-1.261,17.408 0.349,17.754 0.715,16.618L0.654,16.614ZM17.848,16.764C18.221,16.407 17.862,15.858 17.355,16.477C16.704,17.274 17.409,17.186 17.848,16.764M18.457,13.268C17.963,12.828 17.568,14.364 18.154,13.849C18.226,13.787 18.48,13.289 18.457,13.268M-1.879,15.313C-1.972,15.213 -2.411,15.348 -2.49,15.562C-2.698,16.127 -1.574,15.642 -1.879,15.313M1.645,15.311C1.831,14.347 0.047,15.151 0.267,15.642C0.405,15.769 1.494,15.441 1.645,15.311M-0.346,14.488C-0.462,14.385 -1.391,14.66 -1.112,14.982C-0.995,15.117 -0.231,14.591 -0.346,14.488M6.666,14.165C5.066,14.135 1.147,15.339 1.215,17.117C2.471,16.956 6.253,15.184 6.666,14.165M-0.041,13.166C-0.416,13.095 -1.657,13.868 -1.572,14.321C-1.293,14.41 0.282,13.662 -0.041,13.166M7.316,13.827C8.752,13.187 7.853,12.438 6.701,12.837C6.84,13.117 7.332,13.336 7.316,13.827M5.917,11.792C2.668,12.373 -0.554,17.527 4.951,13.395C1.642,13.852 6.666,12.848 5.917,11.792M2.41,11.845C2.328,11.754 1.542,12.06 1.799,12.339C1.986,12.543 2.614,12.071 2.41,11.845M4.816,11.337C-1.534,14.066 0.005,15.509 4.871,11.347L4.816,11.337ZM6.853,9.366L6.778,8.542C6.097,8.888 6.617,9.618 6.853,9.366M22.02,7.882C21.718,7.863 21.246,7.946 21.254,8.21C21.263,8.474 21.925,8.261 22.02,7.882M7.736,9.492C8.158,8.457 8.064,7.618 7.006,8.212C7.276,8.64 6.825,10.283 7.736,9.492M21.561,6.23C21.329,6.48 22.018,6.933 22.018,6.477C22.018,6.372 21.651,6.133 21.561,6.23M20.04,5.984C19.531,6.237 19.706,7.692 20.347,7.469C20.347,7.469 20.55,5.731 20.04,5.984M6.905,5.561C6.503,5.176 6.149,5.875 6.676,5.908C7.202,5.941 7.308,5.946 6.905,5.561M19.982,4.784C20.121,5.407 20.905,5.257 20.727,4.732C20.55,4.208 19.361,3.81 19.263,3.917C19.247,4.241 19.597,4.833 19.982,4.784M-2.136,3.951C-1.696,4.343 -0.391,3.032 -0.452,2.715C-0.802,1.917 -2.148,3.664 -2.136,3.951M1.756,1.397C2.241,-0.193 0.218,1.85 -0.191,2.182C0.137,2.734 1.409,1.515 1.756,1.397M5.785,2.216C5.699,1.233 6.798,0.428 7.404,-0.214C6.66,-1.442 3.504,2.463 5.785,2.216M18.497,1.273C18.555,1.22 17.98,0.323 17.885,0.448C17.743,0.636 18.102,1.629 18.497,1.273M16.964,-0.709C17.229,-0.997 16.052,-1.85 16.353,-0.957C16.426,-0.739 16.876,-0.612 16.964,-0.709M12.212,-2.025C6.818,1.447 9.764,5.518 11.021,10.315C11.142,10.753 11.286,11.307 11.784,11.438C15.12,12.182 19.299,6.647 17.197,3.021C16.715,2.191 16.248,1.528 15.762,0.68C14.881,-0.497 15.059,-0.891 13.829,-1.779C13.516,-2.005 13.452,-2.589 12.212,-2.025M14.767,-4.153C14.668,-4.121 14.362,-3.801 14.362,-3.763C14.596,-3.163 15.977,-4.235 14.767,-4.153M15.055,-5.887C19.856,-2.029 24.148,2.673 22.848,9.081C22.774,12.076 22.811,15.077 22.612,18.068C22.561,18.84 22.029,20.975 23.45,20.724C24.607,20.521 25.989,19.269 26.852,18.526C27.489,17.977 28.169,17.339 29.009,17.332C29.296,17.33 28.891,19.435 28.826,19.622C28.539,20.441 28.03,20.979 27.486,21.624C26.546,22.739 25.467,23.617 24.292,24.494C22.775,25.627 21.048,26.901 19.161,27.324C16.691,27.877 15.924,25.74 15.675,23.699C15.384,21.31 15.705,18.693 14.898,16.392C14.639,15.651 14.197,14.934 13.411,14.682C11.778,14.363 9.95,16.384 9.768,18.151C8.932,23.025 4.514,26.095 -0.135,28.275C-4.615,30.311 -6.22,24.748 -6.302,21.282C-6.409,18.328 -6.913,15.246 -4.937,13.277C-2.78,10.665 2.078,9.832 2.656,6.156C2.238,2.111 -2.065,6.626 -4.095,5.856C-8.147,4.03 10.257,-8.55 14.853,-6.015L15.055,-5.887Z" style="fill:rgb(35,31,32);fill-rule:nonzero;"/>
        </g>
        <g transform="matrix(1,0,0,1,397.924,105.3491)">
            <path d="M0,5.176C0.136,5.01 0.218,4.259 -0.075,4.259C-0.53,4.259 -0.192,5.41 0,5.176M4.137,2.266C3.536,2.02 1.785,2.67 1.84,3.49C2.512,3.549 4.342,3.385 4.137,2.266M1.686,0.886C2.298,1.129 4.677,-0.232 3.058,-0.117C2.606,0.021 1.914,0.453 1.686,0.886M4.655,4.66C2.023,8.753 -1.392,10.89 -1.649,4.105C-1.75,2.73 -1.724,1.311 -0.761,0.366C3.956,-5.714 6.839,-1.458 4.749,4.466L4.655,4.66Z" style="fill:rgb(35,31,32);fill-rule:nonzero;"/>
        </g>
        <g transform="matrix(1,0,0,1,411.8655,108.5799)">
            <path d="M0,-3.625C-0.316,-3.897 -1.204,-3.185 -0.918,-2.86C-0.877,-2.813 0.263,-3.399 0,-3.625M1.836,-2.36C2.277,-0.812 0.927,1.45 -0.372,2.575C-2.417,4.573 -4.734,4.664 -4.25,1.951C-3.717,0.606 -4.161,-0.468 -4.571,-1.746C-4.934,-6.095 2.264,-8.289 1.815,-2.664L1.836,-2.36Z" style="fill:rgb(35,31,32);fill-rule:nonzero;"/>
        </g>
        <g transform="matrix(1,0,0,1,505.1026,120.9425)">
            <path d="M0,23.457C-1.185,23.239 -1.47,25.096 -0.153,24.681C-0.659,23.66 -0.32,24.277 0,23.457M1.078,24.714C1.078,24.714 0.882,24.55 0.619,24.714C0.356,24.877 0.62,25.173 0.62,25.173C0.855,25.101 1.187,25.041 1.078,24.714M1.924,24.915C2.321,24.914 2.828,24.183 2.306,23.998C2.092,24.006 1.779,24.752 1.924,24.915M15.71,22.005C15.501,21.801 15.063,22.43 15.252,22.617C15.51,22.874 15.795,22.088 15.71,22.005M-1.723,22.392C-1.985,22.204 -2.484,22.476 -2.56,22.828C-2.648,23.864 -1.122,23.015 -1.723,22.392M19.216,22.752C19.243,22.733 19.396,22.234 19.425,22.116C19.715,20.877 17.662,23.327 19.216,22.752M9.854,21.079C9.54,21.037 3.56,25.052 6.021,24.304C7.093,23.755 9.487,22.029 9.854,21.079M-2.521,20.627C-2.72,20.399 -3.484,21.274 -2.901,21.391C-2.558,21.461 -2.288,20.891 -2.521,20.627M15.439,19.041C14.961,18.333 14.552,19.118 14.901,19.317C15.251,19.516 15.918,19.748 15.439,19.041M19.235,18.481C19.45,18.7 20.096,17.819 19.616,17.716C19.241,17.635 19.131,18.375 19.235,18.481M-1.601,16.49C-1.908,16.507 -2.95,16.954 -2.978,17.33C-2.77,17.887 -1.408,16.786 -1.601,16.49M19.846,15.571C19.58,15.305 18.662,16.223 18.928,16.489C19.239,16.8 20.157,15.882 19.846,15.571M12.953,15.111C12.47,14.97 9.926,17.573 11.659,16.645C11.765,16.166 13.078,15.615 12.953,15.111M10.119,11.149C10.524,11.609 10.714,13.301 11.572,13.293C12.043,12.804 10.592,11.271 10.119,11.149M9.735,13.885C9.475,13.582 8.748,14.392 9.124,14.804C9.345,15.047 10.191,14.418 9.735,13.885M12.493,13.58C11.984,13.426 12.248,14.15 12.034,14.344C12.242,14.54 12.813,13.91 12.493,13.58M10.808,13.884C10.733,13.804 10.566,12.974 10.35,13.12C10.35,13.12 10.174,13.743 10.349,13.886C10.524,14.029 10.808,13.884 10.808,13.884M0.496,16.418C-0.732,17.262 -2.639,18.425 -0.73,19.884C1.965,23.661 2.501,24.639 6.846,21.89C7.403,21.579 7.43,21.543 8.362,21.051C10.816,19.759 8.441,17.132 7.443,14.813C6.781,13.701 6.866,12.371 5.826,12.258C4.004,12.165 2.041,15.244 0.7,16.268L0.496,16.418ZM18.786,13.367C20.256,11.297 15.198,15.452 14.635,16.356C16.072,15.98 17.649,14.352 18.786,13.367M9.276,12.354C8.987,12.073 7.74,13.284 8.436,13.425C8.754,13.49 9.418,12.492 9.276,12.354M10.992,10.976C10.992,10.976 10.576,10.039 10.227,10.211C9.879,10.383 10.621,10.907 10.992,10.976M13.261,13.579C13.729,13.396 15.708,11.956 14.562,11.451C14.081,11.756 12.62,12.788 13.261,13.579M1.845,12.125C2.287,11.679 0.858,11.171 1.08,11.741C1.16,11.945 1.7,12.271 1.845,12.125M19.694,10.363C19.016,10.233 18.567,10.764 19.31,10.974L19.694,10.363ZM7.745,10.21C7.615,11.037 8.291,10.782 8.661,10.285C8.529,9.945 7.864,10.105 7.745,10.21M7.131,8.984C7.131,8.984 6.731,9.155 6.826,8.984C6.921,8.812 6.826,9.442 6.826,9.442C6.826,9.442 6.976,9.674 7.131,9.442C7.287,9.21 7.131,8.984 7.131,8.984M13.998,8.959C14.188,8.264 13.792,8.67 13.631,8.991C13.012,8.631 12.884,8.987 13.336,9.441C13.411,9.212 13.966,9.008 13.998,8.959M5.854,8.026C4.737,8.244 3.555,9.378 2.979,10.304C3.646,11.123 5.677,8.639 5.854,8.026M9.065,8.762C9.531,8.353 11.34,7.822 10.926,6.976C10.219,6.922 7.845,9.453 9.065,8.762M16.782,7.144C17.012,6.534 13.837,4.614 14.945,6.149C15.279,6.53 16.267,7.603 16.782,7.144M17.627,5.307C17.027,5.434 17.788,6.838 18.39,6.685C19.112,6.501 17.916,5.246 17.627,5.307M12.799,5.766C12.854,5.236 12.408,3.844 11.575,4.235C11.249,4.543 12.709,5.876 12.799,5.766M18.468,3.927C18.642,3.442 16.986,1.886 17.242,3.161C17.978,2.967 17.472,4.153 18.468,3.927M12.035,2.395C12.332,2.693 12.98,1.904 12.415,1.783C12.096,1.715 11.919,2.28 12.035,2.395M9.2,1.479L8.972,1.706L9.2,1.934L9.427,1.706L9.2,1.479ZM3.914,1.171C3.657,0.932 2.701,1.817 2.842,1.935C3.175,2.213 4.134,1.375 3.914,1.171M17.548,2.242C17.795,2.005 16.782,1.022 16.706,1.019C16.037,1.157 17.07,2.611 17.548,2.242M10.961,-0.054C10.371,-0.085 9.851,-0.578 9.277,-0.361C9.189,0.196 10.827,0.433 10.961,-0.054M14.639,-0.975C14.331,-0.299 16.149,1.366 16.018,0.175C15.674,-0.265 15.051,-0.58 14.639,-0.975M11.881,-1.74C10.787,-2.153 9.691,-0.683 11.79,-1.271C11.947,-1.341 11.9,-1.725 11.881,-1.74M13.295,-1.623C13.526,-1.332 14.328,-1.356 14.159,-1.949C13.953,-2.667 12.691,-2.386 13.295,-1.623M17.908,-0.261C21.105,7.46 20.758,13.546 21.586,20.346C21.668,21.026 21.701,22.031 22.219,22.383C23.743,23.372 26.782,18.042 28.063,20.231C27.892,22.643 25.426,24.389 23.473,26.09C21.387,27.616 19.409,29.221 17.368,30.498C15.148,31.451 15.04,28.575 14.901,26.221C14.764,25.003 15.03,22.596 13.692,22.392C10.457,23.314 6.507,27.188 2.903,28.036C-3.044,30.168 -5.263,24.407 -6.229,19.675C-7.422,13.034 1.157,9.95 5.577,6.643C6.852,5.607 8.943,4.503 8.848,2.824C8.71,1.813 7.194,1.255 5.811,1.59C3.887,1.926 1.725,3.575 0.037,4.442C-0.713,4.753 -1.349,5.011 -1.833,4.496C-3.404,1.591 13.464,-7.994 16.948,-1.81L17.908,-0.261Z" style="fill:rgb(35,31,32);fill-rule:nonzero;"/>
        </g>
        <g transform="matrix(1,0,0,1,509.1791,105.3491)">
            <path d="M0,5.176C0.136,5.01 0.218,4.259 -0.075,4.259C-0.53,4.259 -0.192,5.41 0,5.176M2.613,2.266C2.012,2.02 0.261,2.67 0.316,3.49C0.988,3.549 2.818,3.385 2.613,2.266M0.772,1.631C1.384,1.874 3.762,0.514 2.144,0.628C1.691,0.766 1,1.199 0.772,1.631M4.655,4.66C2.023,8.753 -1.392,10.89 -1.649,4.105C-1.75,2.73 -1.724,1.311 -0.761,0.366C3.956,-5.714 6.839,-1.458 4.749,4.466L4.655,4.66Z" style="fill:rgb(35,31,32);fill-rule:nonzero;"/>
        </g>
        <g transform="matrix(1,0,0,1,523.1206,108.5799)">
            <path d="M0,-3.625C-0.316,-3.897 -1.204,-3.185 -0.918,-2.86C-0.877,-2.813 0.263,-3.399 0,-3.625M1.836,-2.36C2.277,-0.812 0.927,1.45 -0.372,2.575C-2.417,4.573 -4.734,4.664 -4.249,1.951C-3.717,0.606 -4.161,-0.468 -4.571,-1.746C-4.934,-6.095 2.265,-8.289 1.815,-2.664L1.836,-2.36Z" style="fill:rgb(35,31,32);fill-rule:nonzero;"/>
        </g>
        <g transform="matrix(1,0,0,1,615.899,119.9172)">
            <path d="M0,26.682C-0.382,27.627 1.416,28.368 1.19,27.006C0.108,27.363 0.382,25.737 0,26.682M3.564,27.003C3.564,27.003 3.357,26.819 3.105,27.003C2.853,27.188 3.024,27.416 3.106,27.462C3.188,27.509 3.673,27.331 3.564,27.003M15.052,15.834C15.449,15.832 15.956,15.101 15.434,14.917C15.22,14.924 14.906,15.67 15.052,15.834M14.914,19.682C14.704,19.478 14.267,20.107 14.455,20.294C14.714,20.55 14.999,19.764 14.914,19.682M-0.076,23.988C-0.337,23.8 -0.836,24.073 -0.913,24.425C-1.001,25.46 0.525,24.612 -0.076,23.988M10.532,22.245C10.218,22.203 4.237,26.218 6.698,25.47C7.771,24.921 10.164,23.195 10.532,22.245M-2.749,23.529C-3.411,20.127 -3.405,24.035 -2.493,25.135C-1.668,25.376 -2.3,23.638 -2.749,23.529M-1.138,21.792C-1.337,21.565 -2.101,22.439 -1.518,22.557C-1.175,22.627 -0.906,22.057 -1.138,21.792M18.073,19.954C17.505,19.826 17.531,21.132 17.997,21.025C18.464,20.919 18.073,19.954 18.073,19.954M19.159,25.184C18.762,24.32 18.046,25.26 18.622,25.46C19.197,25.661 19.159,25.184 19.159,25.184M-2.302,20.412C-1.86,19.966 -3.288,19.459 -3.067,20.028C-2.987,20.233 -2.447,20.558 -2.302,20.412M14.47,8.61C14.685,8.83 15.331,7.949 14.851,7.845C14.476,7.765 14.366,8.504 14.47,8.61M-0.924,17.656C-1.23,17.673 -2.273,18.12 -2.301,18.496C-2.093,19.053 -0.731,17.952 -0.924,17.656M18.036,17.5C17.77,17.234 16.852,18.152 17.118,18.418C17.429,18.729 18.347,17.811 18.036,17.5M13.63,16.277C13.112,16.378 11.508,17.463 11.793,18.115C12.23,17.879 13.568,16.798 13.63,16.277M18.694,28.571C19.353,28.889 20.682,27.554 20.501,26.715C19.927,26.352 18.035,28.252 18.694,28.571M1.167,17.581C-0.065,18.427 -1.975,19.592 -0.062,21.054C2.638,24.839 3.175,25.82 7.53,23.064C8.088,22.753 8.115,22.716 9.049,22.223C11.508,20.929 9.128,18.297 8.128,15.972C7.465,14.859 7.549,13.525 6.507,13.412C4.681,13.319 2.715,16.404 1.371,17.431L1.167,17.581ZM19.463,14.533C20.933,12.463 15.876,16.618 15.312,17.522C16.75,17.146 18.327,15.518 19.463,14.533M9.859,16.005C10.955,16.096 15.851,10.988 12.211,13.218C11.47,13.91 9.447,14.983 9.859,16.005M11.974,15.985C18.341,12.829 16.151,10.144 11.94,15.988L11.974,15.985ZM11.394,11.99C9.977,12.269 7.505,16.152 10.397,13.527C10.715,13.139 12.175,12.291 11.394,11.99M7.849,11.487C8.292,11.04 6.863,10.533 7.085,11.102C7.164,11.307 7.705,11.632 7.849,11.487M17.589,10.823C17.137,10.369 16.576,11.272 17.205,11.434C17.834,11.597 18.041,11.276 17.589,10.823M12.981,10.206C12.266,11.09 13.069,10.458 13.622,10.402C14.175,10.346 15.361,10.857 14.376,9.944C13.391,9.032 13.062,10.155 12.981,10.206M3.239,12.571C2.122,12.789 0.94,13.923 0.364,14.849C1.031,15.668 3.062,13.184 3.239,12.571M10.538,9.664C13.481,6.861 8.621,9.221 9.091,10.944C9.044,11.434 8.056,11.274 8.506,11.93C9.403,12.221 10.279,10.244 10.538,9.664M17.46,8.31C17.689,7.7 14.515,5.78 15.622,7.315C15.956,7.696 16.944,8.769 17.46,8.31M14.12,4.552C13.519,4.679 14.28,6.083 14.882,5.93C15.605,5.746 14.408,4.491 14.12,4.552M13.78,7.668C13.513,7.381 13.415,6.479 13.07,6.247C11.64,5.833 13.387,7.752 13.78,7.668M17.312,5.655C17.486,5.17 15.831,3.614 16.087,4.889C16.823,4.695 16.317,5.881 17.312,5.655M14.964,3.373C15.261,3.671 15.909,2.883 15.345,2.762C15.025,2.693 14.849,3.258 14.964,3.373M4.445,1.419C4.188,1.18 3.232,2.065 3.374,2.183C3.707,2.461 4.666,1.623 4.445,1.419M18.226,3.408C18.473,3.171 17.46,2.188 17.384,2.185C16.715,2.323 17.747,3.777 18.226,3.408M9.986,0.225C9.395,0.195 8.875,-0.299 8.301,-0.082C8.213,0.476 9.851,0.712 9.986,0.225M15.317,0.191C15.008,0.867 16.826,2.532 16.695,1.34C16.352,0.901 15.729,0.586 15.317,0.191M12.183,-0.223C11.088,-0.636 9.992,0.834 12.091,0.246C12.249,0.176 12.201,-0.208 12.183,-0.223M13.614,0.476C13.844,0.767 14.647,0.743 14.477,0.15C14.271,-0.568 13.01,-0.287 13.614,0.476M18.582,1.185C18.988,1.839 19.398,2.514 19.8,3.206C22.312,7.538 22.251,12.429 21.951,17.271C21.796,19.774 21.165,23.907 24.904,22.791C26.013,22.46 26.953,21.799 27.945,21.209C28.238,21.034 28.566,20.852 28.902,20.913C29.21,20.968 29.454,21.225 29.565,21.518C29.675,21.81 29.671,22.134 29.632,22.444C29.346,24.735 27.536,25.596 25.818,26.722C23.592,28.182 21.292,29.611 18.95,30.879C17.854,31.473 17.04,31.882 16.631,31.64C15.823,30.656 16.255,29.091 15.861,27.339C15.635,25.872 15.052,23.194 13.394,23.461C8.207,25.329 3.007,34.119 -2.906,27.314C-9.203,19.932 -1.773,11.71 5.806,7.823C7.105,7.145 8.435,6.46 9.421,5.368C12.907,1.422 6.585,2.629 4.292,3.687C2.422,4.16 0.606,6.371 -1.12,5.886C-3.254,3.547 13.397,-7.437 17.713,-0.595L18.582,1.185Z" style="fill:rgb(35,31,32);fill-rule:nonzero;"/>
        </g>
        <g transform="matrix(1,0,0,1,622.8806,106.1139)">
            <path d="M0,3.647C0.136,3.481 0.218,2.73 -0.075,2.73C-0.53,2.73 -0.192,3.881 0,3.647M1.445,0.73C0.844,0.483 -0.907,1.133 -0.852,1.954C-0.179,2.013 1.651,1.848 1.445,0.73M-0.04,5.137C0.572,5.381 2.95,4.02 1.332,4.135C0.879,4.272 0.187,4.705 -0.04,5.137M4.182,3.895C1.551,7.988 -1.865,10.126 -2.121,3.34C-2.223,1.965 -2.197,0.547 -1.234,-0.398C3.483,-6.479 6.366,-2.223 4.276,3.701L4.182,3.895Z" style="fill:rgb(35,31,32);fill-rule:nonzero;"/>
        </g>
        <g transform="matrix(1,0,0,1,636.3493,108.5799)">
            <path d="M0,-3.625C-0.316,-3.897 -1.204,-3.185 -0.918,-2.86C-0.877,-2.813 0.263,-3.399 0,-3.625M1.836,-2.36C2.277,-0.812 0.927,1.45 -0.372,2.575C-2.417,4.573 -4.734,4.664 -4.25,1.951C-3.717,0.606 -4.161,-0.468 -4.571,-1.746C-4.934,-6.095 2.264,-8.289 1.815,-2.664L1.836,-2.36Z" style="fill:rgb(35,31,32);fill-rule:nonzero;"/>
        </g>
        <g transform="matrix(1,0,0,1,217.9908,86.7201)">
            <path d="M0,83.421C0.13,83.459 0.39,83.536 0.521,83.574C2.14,85.472 3.799,83.372 5.04,82.626L5.11,82.7C5.05,85.587 -0.119,87.052 0,83.421M-3.905,81.361C-4.432,81.806 -4.824,80.775 -4.97,80.436C-5.083,80.173 -5.173,79.806 -5.325,79.557C-5.368,79.486 -5.452,79.433 -5.454,79.344L-5.521,79.209C-5.439,79.365 -5.313,79.515 -5.166,79.347C-5.091,79.262 -5.14,79.264 -5.051,79.206C-5.095,79.234 -4.849,79.15 -4.887,79.157C-4.741,79.13 -4.573,79.118 -4.443,79.173C-4.372,79.203 -4.16,79.301 -4.117,79.358C-4.083,79.402 -4.112,79.531 -4.112,79.573C-4.109,79.742 -4.067,79.826 -3.976,79.958C-3.857,80.129 -3.798,80.284 -3.775,80.494C-3.748,80.744 -3.687,81.179 -3.905,81.361M-5.44,15.98C-5.207,15.563 -4.906,15.174 -4.6,14.809C-4.334,14.49 -3.874,13.905 -3.366,14.013C-3.299,13.982 -3.218,13.799 -3.081,13.759C-2.964,13.724 -2.734,13.751 -2.686,13.873C-2.651,13.962 -2.773,14.172 -2.798,14.254C-2.887,14.546 -2.985,14.806 -3.159,15.06C-3.519,15.585 -4.05,15.976 -4.569,16.332C-4.925,16.577 -5.33,16.926 -5.78,16.898C-5.808,16.568 -5.597,16.262 -5.44,15.98M-7.078,15.56C-7.755,16.718 -7.551,19.553 -7.983,20.876C-7.669,19.044 -8.075,16.854 -9.397,15.728C-10.381,14.784 -11.449,14.488 -11.257,14.216C-11.079,13.919 -10.27,13.979 -9.909,14.07C-7.672,15.106 -6.521,13.385 -4.624,12.937L-4.51,12.991C-4.672,14.04 -6.338,14.998 -7.078,15.56M-6.684,77.664C-7.359,77.675 -8.142,76.928 -8.34,76.248C-9.096,74.569 -7.737,72.376 -7.872,70.62C-8.346,69.096 -9.36,67.556 -8.797,65.892C-6.752,62.098 -10.054,57.019 -8.165,53.291L-8.104,53.329C-8.199,60.719 -6.424,68.42 -7.446,75.746C-7.39,76.222 -7.018,76.579 -6.713,76.974C-6.408,77.354 -6.38,77.646 -6.684,77.664M-8.577,50.668C-8.722,50.524 -8.733,47.091 -8.486,46.607C-7.617,47.031 -7.341,51.168 -8.577,50.668M-9.091,39.943L-9.091,40.01C-9.092,40.101 -9.1,40.177 -9.077,40.259C-8.977,40.145 -8.983,40.093 -8.824,40.075C-8.698,40.06 -8.563,40.108 -8.449,40.145C-8.221,40.22 -8.26,40.457 -8.28,40.681C-8.298,40.894 -8.437,41.129 -8.568,41.301C-8.727,41.512 -9.009,41.42 -9.232,41.348C-9.802,41.165 -9.389,40.23 -9.091,39.943M-10.034,34.785C-10.53,34.398 -12.463,34.889 -12.799,34.419C-12.661,33.624 -10.207,33.386 -9.719,32.643C-7.923,29.42 -9.996,24.603 -8.087,21.375L-8.047,21.405C-8.865,26.266 -6.617,32.84 -8.778,37.626C-9.237,36.764 -8.879,35.223 -10.034,34.785M-3.074,10.411C-2.917,10.269 -2.742,10.149 -2.552,10.055C-2.509,10.033 -2.45,10.015 -2.416,10.05C-2.377,10.091 -2.411,10.157 -2.444,10.203C-2.528,10.322 -2.597,10.45 -2.65,10.585C-2.675,10.65 -2.693,10.732 -2.644,10.781C-2.592,10.833 -2.503,10.808 -2.439,10.77C-2.224,10.641 -2.073,10.402 -1.831,10.336C-1.775,10.321 -1.704,10.322 -1.672,10.37C-1.641,10.416 -1.664,10.477 -1.688,10.527C-1.788,10.73 -1.912,10.921 -2.056,11.095C-2.127,11.181 -2.203,11.27 -2.287,11.342C-2.346,11.393 -2.408,11.403 -2.482,11.422C-2.749,11.489 -3.184,11.542 -3.423,11.367C-3.685,11.175 -3.426,10.792 -3.278,10.62C-3.214,10.546 -3.146,10.477 -3.074,10.411M-1.279,13.504C-1.086,13.186 -0.844,12.913 -0.517,12.727C-0.313,12.61 -0.078,12.538 0.158,12.55C0.218,12.554 0.292,12.575 0.302,12.635C0.312,12.697 0.244,12.741 0.187,12.767C0.111,12.802 0.028,12.846 0.002,12.926C-0.02,12.996 0.01,13.071 0.02,13.143C0.036,13.256 -0.054,13.34 -0.116,13.424C-0.328,13.708 -0.761,14.126 -1.152,14.092C-1.514,14.06 -1.409,13.718 -1.279,13.504M-21.389,35.18C-20.445,34.576 -17.672,34.628 -16.518,34.605C-17.148,35.167 -22.301,36.625 -21.389,35.18M-37.39,43.796C-37.407,44.081 -37.449,44.166 -37.526,44.042C-38.644,41.7 -37.641,35.32 -37.519,31.911C-37.424,30.793 -37.502,29.056 -37.522,28.17C-37.498,28.069 -37.419,28.22 -37.312,28.565C-35.404,36.077 -41.117,40.708 -29.384,37.171L-29.333,37.204C-31.99,39.24 -37.919,38.986 -37.39,43.796M-34.774,65.359C-34.787,65.375 -34.801,65.389 -34.816,65.403C-34.966,65.534 -35.265,65.597 -35.457,65.628C-35.905,65.702 -36.348,65.576 -36.674,65.256C-37.063,64.875 -37.105,64.328 -36.992,63.821C-36.934,63.565 -36.805,63.329 -36.749,63.076C-36.687,62.799 -36.574,62.586 -36.318,62.431C-36.262,62.397 -36.197,62.367 -36.132,62.379C-36.031,62.398 -35.976,62.508 -35.953,62.608C-35.9,62.832 -35.931,63.065 -35.93,63.295C-35.928,63.525 -35.886,63.772 -35.724,63.934C-35.53,64.127 -35.223,64.146 -34.992,64.292C-34.815,64.404 -34.689,64.594 -34.654,64.8C-34.626,64.969 -34.656,65.215 -34.774,65.359M-36.78,53.48C-36.684,53.309 -36.558,53.155 -36.38,53.057C-36.186,52.95 -35.911,52.956 -35.774,53.13C-35.671,53.26 -35.672,53.442 -35.688,53.607C-35.71,53.831 -35.783,54.046 -35.808,54.267C-35.829,54.454 -35.876,54.612 -35.992,54.769C-36.172,55.014 -36.396,54.998 -36.654,54.899C-36.896,54.807 -37.118,54.773 -37.113,54.482C-37.108,54.179 -36.985,53.918 -36.863,53.647C-36.838,53.591 -36.81,53.534 -36.78,53.48M-35,41.896C-34.941,41.886 -34.879,41.881 -34.815,41.883C-34.7,41.886 -34.565,41.927 -34.535,42.038C-34.517,42.104 -34.547,42.176 -34.591,42.229C-34.635,42.282 -34.693,42.321 -34.746,42.366C-34.951,42.541 -35.048,42.813 -35.189,43.038C-35.352,43.296 -35.517,43.554 -35.664,43.823C-35.979,44.398 -36.125,45 -36.362,45.602C-36.44,45.798 -36.676,46.312 -36.976,46.209C-37.03,45.756 -36.858,45.294 -36.75,44.859C-36.597,44.239 -36.437,43.639 -36.134,43.073C-35.881,42.6 -35.56,41.994 -35,41.896M-38.286,50.649C-38.442,50.422 -38.395,50.212 -38.32,49.967C-38.209,49.606 -38.019,49.272 -37.917,48.912C-37.827,48.592 -37.506,48.295 -37.251,48.097C-37.097,47.977 -36.888,47.871 -36.713,47.958C-36.6,48.015 -36.536,48.136 -36.482,48.25C-36.321,48.592 -36.257,48.901 -36.38,49.265C-36.493,49.598 -36.674,49.914 -36.909,50.176C-37.204,50.504 -37.891,51.225 -38.286,50.649M-39.704,64.423C-39.747,65.385 -38.935,66.129 -38.371,66.835C-44.221,70.033 -38.426,57.594 -38.68,56.604L-38.605,56.646C-36.994,59.18 -39.633,61.909 -39.704,64.423M-43.507,6.554C-42.541,5.67 -41,5.166 -40.655,3.772C-40.059,1.413 -41.628,-1.306 -40.131,-3.407C-39.636,-4.104 -38.832,-4.65 -38.077,-5.126C-33.881,-7.631 -32.597,-9.51 -29.32,-6.049C-28.991,-5.68 -28.797,-5.589 -28.583,-5.06L-28.628,-4.953C-29.433,-4.897 -30.249,-5.495 -31.082,-5.903C-32.549,-6.687 -33.469,-6.037 -34.978,-5.626C-39.628,-4.309 -40.285,-2.303 -39.574,2.586C-39.105,5.436 -43.007,6.988 -42.446,9.798C-42.234,10.732 -41.193,11.001 -40.55,11.634C-39.594,12.597 -39.827,14.904 -41.053,13.701C-42.697,11.785 -46.142,8.85 -43.507,6.554M-38.013,4.37C-37.834,4.137 -37.58,3.936 -37.407,3.793C-37.255,3.666 -37.046,3.543 -36.835,3.636C-36.719,3.687 -36.765,3.867 -36.806,3.969C-36.944,4.311 -37.197,4.572 -37.441,4.837C-37.577,4.984 -38.064,5.443 -38.193,5.065C-38.276,4.821 -38.176,4.583 -38.013,4.37M-37.654,8.263C-37.998,8.672 -38.427,9.138 -38.878,9.438C-39.051,9.554 -39.38,9.628 -39.472,9.369C-39.542,9.172 -39.464,8.808 -39.41,8.626C-39.297,8.242 -39.087,7.811 -38.78,7.543C-38.482,7.282 -38.102,7.114 -37.713,7.052C-37.604,7.034 -37.482,7.028 -37.394,7.094C-37.242,7.209 -37.227,7.532 -37.286,7.695C-37.363,7.906 -37.51,8.093 -37.654,8.263M-37.857,16.647C-37.841,16.649 -37.825,16.653 -37.81,16.658C-37.25,16.845 -38.303,18.024 -38.484,18.216C-38.702,18.449 -39.6,19.413 -40,19.139C-39.994,18.901 -39.844,18.684 -39.736,18.474C-39.534,18.08 -39.247,17.78 -38.984,17.432C-38.872,17.283 -38.801,17.132 -38.655,17.002C-38.501,16.865 -38.321,16.756 -38.126,16.687C-38.04,16.656 -37.946,16.632 -37.857,16.647M-38.26,22.104C-38.553,22.104 -38.509,21.815 -38.422,21.623C-38.294,21.341 -38.163,21.085 -37.862,20.951C-37.782,20.916 -37.688,20.893 -37.61,20.933C-37.53,20.974 -37.494,21.073 -37.503,21.163C-37.511,21.252 -37.557,21.334 -37.606,21.409C-37.703,21.562 -37.716,21.734 -37.827,21.875C-37.933,22.009 -38.085,22.104 -38.26,22.104M-38.07,23.295C-37.928,23.166 -37.687,23.306 -37.655,23.484C-37.62,23.679 -37.747,23.952 -37.954,23.986C-38.15,24.018 -38.167,23.689 -38.165,23.557C-38.163,23.478 -38.149,23.397 -38.103,23.332C-38.093,23.318 -38.082,23.306 -38.07,23.295M-34.525,8.531C-34.3,8.447 -34.054,8.412 -33.849,8.526C-33.645,8.64 -33.538,8.881 -33.523,9.115C-33.502,9.451 -33.599,9.917 -33.806,10.189C-34.137,10.627 -34.531,11.108 -34.953,11.451C-35.436,11.844 -35.973,12.125 -36.517,12.423C-36.782,12.568 -37.248,12.94 -37.566,12.787C-37.713,12.395 -37.443,11.922 -37.267,11.595C-36.934,10.978 -36.557,10.387 -36.081,9.869C-35.871,9.641 -35.718,9.37 -35.486,9.153C-35.249,8.932 -34.979,8.745 -34.688,8.602C-34.635,8.577 -34.581,8.553 -34.525,8.531M24.597,71.677C22.437,72.361 20.202,71.283 18.099,70.676C11.885,68.698 9.238,76.44 4.478,78.612C3.321,79.151 1.848,79.161 1.337,77.85C-2.796,66.717 -8.178,23.818 0.299,17.581C1.438,16.665 2.436,15.319 3.547,14.295C5.413,12.4 8.114,12.521 10.831,12.288C12.732,12.13 14.9,10.886 14.558,9.666C12.562,6.657 8.323,9.824 5.587,9.996C1.882,10.108 -1.157,5.722 -5.187,7.094C-6.764,7.445 -8.121,8.45 -9.636,8.953C-11.936,9.691 -14.861,8.658 -16.609,10.84C-19.051,13.72 -15.556,16.424 -13.553,18.283C-11.467,20.704 -11.325,25.256 -12.64,28.226C-13.788,30.601 -16.646,31.262 -19.124,31.469C-29.95,32.667 -36.47,29.369 -32.412,18.378C-29.866,14.002 -25.806,10.771 -30.732,6.347C-31.882,5.269 -33.308,4.199 -34.049,2.847C-35.333,0.792 -33.768,-2.337 -31.267,-2.187C-28.507,-2.15 -26.035,2.081 -22.973,1.677C-20.103,1.456 -17.38,-1.728 -14.498,-0.163L-14.222,-0.019C-12.888,0.795 -11.26,1.726 -9.4,1.68C-7.126,1.498 -4.868,1.228 -2.638,1.668C-1.773,1.659 -1.403,1.759 -0.672,0.997C-0.274,0.44 -0.406,-0.292 -0.817,-0.805C-1.91,-2.177 -5.051,-0.947 -6.624,-1.736C-7.862,-2.237 -8.723,-4.291 -9.75,-5.246C-13.169,-9.186 -18.195,-2.679 -21.482,-3.14C-22.079,-3.241 -22.621,-3.627 -23.116,-4.242C-23.789,-5.069 -24.372,-6.238 -24.977,-7.176C-29.014,-14.155 -41.215,-10.665 -44.935,-4.485C-46.138,-2.091 -43.857,0.802 -46.405,2.727C-46.78,3.021 -47.232,3.364 -47.631,3.626C-56.241,8.725 -44.372,17.217 -43.808,24.122C-35.464,49.901 -55.773,65.295 -47.607,68.095C-46.332,68.585 -45.066,69.019 -43.845,69.973C-41.993,71.347 -40.949,73.591 -40.018,75.717C-39.522,76.888 -38.136,78.315 -37.212,76.707C-36.64,75.789 -36.363,74.582 -35.736,73.658C-33.535,70.355 -26.987,68.972 -29.256,64.21C-32.066,59.848 -31.937,54.734 -31.739,49.515C-31.703,41.858 -27.453,37.922 -19.665,39.129C-11.353,40.218 -12.128,55.739 -12.098,63.822C-12.139,70.067 -18.856,77.878 -11.528,82.211C-8.737,83.909 -5.277,85.29 -4.204,88.811C-1.12,97.576 7.41,93.127 9.127,86.487C10.692,79.763 11.707,72.775 20.564,74.091C22.951,74.037 28.965,76.789 30.045,73.544C29.934,70.927 26.497,71.15 24.597,71.677" style="fill:rgb(35,31,32);fill-rule:nonzero;"/>
        </g>
        <g transform="matrix(1,0,0,1,581.3215,117.2822)">
            <path d="M0,31.892C0.033,31.854 0.019,31.438 -0.015,31.323C-0.767,30.168 -1.092,32.53 0,31.892M-0.542,29.864C-0.341,29.644 -0.916,28.902 -1,29.018C-1.187,29.278 -0.788,30.134 -0.542,29.864M-1.766,26.547C-2.152,26.423 -2.655,27.794 -3.14,27.569C-3.071,29.862 -1.407,27.422 -1.766,26.547M0.827,24.836C-1.322,24.853 -1.587,28.913 -0.021,25.6C0.64,25.742 1.176,25.6 0.827,24.836M-1.611,23.841C-1.854,23.573 -2.313,24.079 -2.07,24.348C-1.827,24.616 -1.368,24.11 -1.611,23.841M-3.543,23.835C-3.704,23.552 -3.941,24.483 -3.997,24.582C-5.595,26.839 -2.849,25.536 -3.543,23.835M1.147,23.334C0.455,23.182 -0.344,23.704 -0.386,24.43C0.076,25.049 1.103,23.849 1.147,23.334M-5.229,22.995C-5.289,23.011 -5.733,23.732 -5.729,23.797C-5.415,24.75 -4.213,23.171 -5.229,22.995M-3.143,20.794C-3.855,21.128 -4.773,22.108 -4.674,22.994C-3.854,23.042 -2.929,21.589 -3.143,20.794M0.075,20.455C-0.029,20.57 0.201,21.022 0.456,20.962C0.971,20.84 0.314,20.191 0.075,20.455M-4.319,19.015C-3.801,19.145 -2.771,16.89 -4.242,16.813C-4.586,17.288 -4.434,18.366 -4.319,19.015M-4.828,20.793C-4.786,20.098 -5.65,20.101 -5.44,20.793L-4.828,20.793ZM-0.51,21.203C0.668,17.824 -4.472,23.413 -2.041,22.874C-1.482,22.494 -1.359,21.348 -0.51,21.203M-0.539,17.239C-0.913,17.175 -3.331,18.975 -1.835,19.279C-1.155,19.352 -0.243,17.578 -0.539,17.239M-1.764,16.222C-2.186,16.088 -3.132,17.025 -2.606,17.407C-2.234,16.703 -1.513,16.45 -1.305,15.715C-1.981,15.629 -1.682,15.796 -1.764,16.222M-3.266,14.569C-3.657,14.181 -4.195,15.17 -4.031,15.414C-3.867,15.659 -2.876,14.956 -3.266,14.569M-4.16,13.607C-3.414,13.555 -3.71,13.056 -4.007,12.591C-4.304,12.126 -4.906,13.658 -4.16,13.607M0.227,13.006C-0.069,12.693 -0.997,13.511 -0.691,13.852C-0.603,13.95 0.61,13.412 0.227,13.006M-1.305,13.006C-1.472,12.809 -2.369,13.716 -2.224,13.851C-1.717,14.066 -1.069,13.542 -1.305,13.006M-1.299,10.086C-2.118,10.259 -2.421,11.743 -3.208,12.184C-3.404,13.1 -0.915,10.563 -1.299,10.086M0.378,10.133C-0.235,9.581 -1.149,10.869 -0.695,11.402C-0.061,11.867 0.578,10.421 0.378,10.133M-3.013,8.369C-3.631,8.236 -5.098,11.016 -6.253,10.881C-7.053,14.083 -2.741,9.741 -3.013,8.369M-7.001,8.299C-7.706,7.788 -7.416,9.297 -7.049,9.279C-6.664,9.26 -6.717,8.505 -7.001,8.299M0.534,7.42C-0.128,7.227 -1.006,8.712 0.379,8.606C0.333,8.25 0.807,7.723 0.534,7.42M-3.603,7.081C-4.565,7.312 -4.31,8.269 -3.451,7.504L-3.603,7.081ZM-3.117,4.729C-3.406,4.135 -5.926,6.279 -5.901,6.648C-4.773,7.633 -3.553,5.629 -3.117,4.729M-0.698,6.265C-0.686,5.599 -0.694,3.339 -1.235,4.069C-1.775,4.8 -2.535,6.81 -0.601,6.513C-0.304,6.437 -0.73,6.351 -0.698,6.265M-4.398,3.506C-3.976,2.849 -4.942,2.83 -5.163,3.166C-5.384,3.503 -4.819,4.163 -4.398,3.506M1.412,14.763C1.119,17.736 2.683,21.845 4.557,23.767C5.293,24.67 5.811,25.317 5.594,26.205C4.871,28.042 3.827,30.06 2.651,31.868C-2.058,39.356 -6.272,28.055 -7.339,21.978C-7.246,17.82 -6.292,6.649 -10.928,8.379C-11.373,8.473 -11.916,8.715 -12.276,8.521C-12.612,8.008 -11.73,6.886 -11.59,6.641C-3.56,-7.464 3.493,1.52 1.435,14.388L1.412,14.763Z" style="fill:rgb(35,31,32);fill-rule:nonzero;"/>
        </g>
        <g transform="matrix(1,0,0,1,579.1957,109.0605)">
            <path d="M0,-1.121C-0.625,-1.408 -1.474,-0.297 -0.687,0.104C-0.282,0.195 0.181,-0.941 0,-1.121M0.428,-3.396C0.17,-3.653 -1.174,-2.771 -0.95,-2.171C0.217,-2.117 -0.222,-2.08 -0.008,-2.682C0.049,-2.845 0.736,-3.089 0.428,-3.396M2.242,-6.389C3.478,-3.642 1.545,5.668 -2.612,1.707C-2.973,-1.424 -2.034,-6.789 2.089,-6.476L2.242,-6.389Z" style="fill:rgb(35,31,32);fill-rule:nonzero;"/>
        </g>
        <g transform="matrix(1,0,0,1,568.1432,123.5118)">
            <path d="M0,2.26C-0.337,2.736 -0.621,3.25 -0.792,3.806C-0.883,4.104 -1.045,4.492 -0.785,4.743C-0.495,5.022 -0.092,4.806 0.183,4.616C1.252,3.88 2.338,3.163 3.391,2.405C4.134,1.869 4.653,1.154 4.763,0.233C4.845,-0.461 4.817,-1.2 5.162,-1.809C5.247,-1.959 5.355,-2.101 5.397,-2.268C5.44,-2.435 5.394,-2.642 5.239,-2.719C5.154,-2.762 5.054,-2.758 4.96,-2.746C4.433,-2.674 3.968,-2.358 3.6,-1.978C3.231,-1.598 2.941,-1.152 2.617,-0.735C1.952,0.12 1.141,0.852 0.447,1.683C0.291,1.869 0.141,2.061 0,2.26" style="fill:rgb(35,31,32);fill-rule:nonzero;"/>
        </g>
        <g transform="matrix(1,0,0,1,272.1041,120.9138)">
            <path d="M0,27.604C0.075,27.68 1.798,26.589 1.8,26.477C1.472,26.072 1.315,26.24 1.331,26.675C1.275,26.738 -0.382,27.22 0,27.604M-0.141,28.005C-0.251,27.917 -0.807,28.018 -0.891,28.231C-1.116,28.808 0.049,28.156 -0.141,28.005M-2.294,28.297C-2.294,28.297 0.602,24.223 -2.308,26.92C-5.353,23.575 -2.294,28.297 -2.294,28.297M24.934,27.649C25.193,27.908 25.844,26.901 25.31,26.9C24.958,26.9 24.78,27.495 24.934,27.649M-3.314,28.191C-6.327,22.794 -7.814,24.874 -3.304,28.248L-3.314,28.191ZM-2.043,24.899C-1.949,24.568 -2.853,23.926 -2.945,24.377C-2.779,24.849 -2.574,25.173 -2.043,24.899M-4.809,24.15C-5.218,23.824 -5.497,24.632 -5.036,24.448C-4.964,24.419 -4.762,24.187 -4.809,24.15M-5.11,22.046C-5.711,21.956 -5.577,22.763 -5.11,22.646L-5.11,22.046ZM26.891,22.045C26.888,21.493 26.491,21.537 26.442,22.045C26.392,22.552 26.891,22.045 26.891,22.045M0.491,25.567C1.555,25.506 1.092,24.311 1.145,23.535C1.14,22.572 1.019,20.031 0.442,22.241C0.776,23.347 0.657,24.557 0.491,25.567M-0.812,19.305C-2.838,22.076 -0.369,29.345 -0.757,19.318L-0.812,19.305ZM-2.967,19.299C-5.114,20.327 -3.054,25.737 -2.872,19.323L-2.967,19.299ZM-0.452,18.139C-0.452,18.139 -0.262,17.843 -0.752,18.139C-1.241,18.436 -0.751,18.89 -0.751,18.89C-0.459,18.894 -0.366,18.226 -0.452,18.139M0.623,19.337C-0.568,19.139 0.038,20.516 0.786,20.614C1.4,20.672 0.613,19.574 0.834,19.41C1.978,18.343 0.842,17.219 0.623,19.337M0.494,8.578C-0.451,7.913 -1.22,10.434 -0.16,10.436C0.492,10.437 0.718,8.736 0.494,8.578M27.673,20.082C27.399,20.036 27.18,20.238 27.224,20.532C27.455,20.462 27.781,20.403 27.673,20.082M1.35,16.185C1.747,15.654 0.85,15.178 0.752,15.81C0.655,16.443 1.231,16.315 1.35,16.185M-1.533,10.577C-2.079,10.382 -1.977,11.919 -1.832,12.381C-1.138,12.441 -1.507,10.902 -1.533,10.577M28.805,15.081C27.962,15.49 26.233,17.944 26.503,18.625C27.015,20.362 29.013,15.594 28.805,15.081M-0.452,17.387C-0.54,16.834 -0.277,15.161 -0.827,15.135C-1.376,15.108 -1.64,17.764 -0.452,17.387M27.679,10.178C27.007,10.503 26.633,11.338 26.41,11.894C26.355,13.326 27.92,10.306 27.679,10.178M28.172,14.746C28.649,14.208 28.971,12.946 28.888,12.21C28.464,12.803 27.06,14.174 28.172,14.746M-0.076,12.732C-0.359,12.732 -0.359,13.479 -0.076,13.479C0.207,13.479 0.207,12.732 -0.076,12.732M0.299,12.429C0.419,12.309 -0.291,11.176 -0.451,11.906C-0.52,12.218 0.155,12.572 0.299,12.429M17.025,7.143C16.872,6.997 15.957,7.27 16.192,7.745C16.59,8.549 17.291,7.398 17.025,7.143M13.917,11.244C13.156,11.357 12.419,13.614 13.146,13.781C13.803,13.534 14.953,11.597 13.917,11.244M29.746,11.078C29.508,10.84 29.058,11.289 29.296,11.528C29.535,11.766 29.984,11.316 29.746,11.078M-3.225,16.718C-3.874,15.027 -3.11,11.888 -4.426,10.541C-5.081,10.879 -5.145,12.18 -5.023,12.916C-5.001,13.736 -4.312,14.319 -4.215,15.023C-4.333,15.697 -4.318,17.004 -3.319,16.823L-3.225,16.718ZM3.539,9.021C4.354,7.912 3.31,7.255 2.192,7.824C2.062,8.073 3.184,9.223 3.539,9.021M1.779,10.118C0.848,10.891 1.152,11.216 1.049,11.649C2.03,12.163 2.71,9.344 1.779,10.118M29.48,10.573C29.566,10.255 29.416,9.149 29.028,9.228C28.463,9.397 27.106,12.356 28.627,11.104C28.622,10.519 29.297,10.574 29.48,10.573M21.917,10.159C22.278,9.905 21.986,8.792 21.287,9.27C20.427,9.857 21.496,10.453 21.917,10.159M15.623,9.125C15.261,8.756 14.649,9.816 15.249,10.176C15.369,10.025 15.74,9.244 15.623,9.125M25.557,11.012C25.594,10.362 27.273,8.703 26.266,8.236C25.923,8.575 24.311,11.133 25.557,11.012M28.694,7.923C28.413,7.588 28.12,8.675 28.245,8.823C28.526,9.159 28.819,8.072 28.694,7.923M13.221,9.875C13.786,10.106 14.82,8.299 14.722,7.923C14.099,8.039 13.122,9.215 13.221,9.875M26.893,7.922C26.994,8.024 27.396,7.799 27.342,7.549C27.234,7.043 26.658,7.687 26.893,7.922M0.599,7.321C0.834,7.086 0.258,6.442 0.15,6.948C0.096,7.198 0.498,7.423 0.599,7.321M25.917,6.244C24.275,6.645 23.869,8.264 23.397,9.688C24.193,10.897 26.256,7.115 25.917,6.244M21.871,7.493C23.085,7.103 22.876,5.557 21.706,6.991C21.151,7.873 20.615,9.128 21.871,7.493M12.334,7.138C11.502,7.442 9.117,11.057 11.328,10.187C12.513,9.073 15.801,3.121 12.334,7.138M-0.326,5.762C-1.744,5.315 -2.532,6.488 -1.757,7.726C-1.25,7.732 -0.184,6.2 -0.326,5.762M-5.71,5.969C-5.114,5.966 -5.114,5.372 -5.71,5.369L-5.71,5.969ZM26.141,5.219C25.986,5.371 26.588,6.487 27.042,5.592C27.093,5.139 26.204,5.158 26.141,5.219M3.605,6.87C4.238,6.999 5.039,5.472 5.106,4.918C4.508,5.112 3.407,6.118 3.605,6.87M25.364,4.746C24.425,5.624 21.386,8.047 22.206,9.05C23.3,8.235 25.086,5.995 25.364,4.746M13.013,4.445C8.158,8.487 10.818,9.497 13.077,4.431L13.013,4.445ZM22.652,4.142C17.539,8.093 20.155,9.518 22.695,4.145L22.652,4.142ZM21.57,3.522C20.708,3.974 16.756,7.66 18.26,7.721C19.247,6.446 21.155,4.771 21.57,3.522M23.286,3.416C23.058,3.19 22.806,3.757 22.837,4.016C23.036,3.983 23.412,3.541 23.286,3.416M10.162,5.443C11.509,4.885 14.014,1.873 10.683,2.8C10.237,4.781 8.334,6.065 7.396,7.624C8.294,8.129 9.408,5.995 10.021,5.537L10.162,5.443ZM10.008,2.188C8.013,2.439 8.223,5.222 6.935,6.473C6.458,7.878 10.704,3.195 10.008,2.188M6.61,3.114C7.008,3.495 9.014,1.508 8.034,1.311C7.546,1.213 6.387,2.901 6.61,3.114M9.914,1.311C10.069,1.157 9.615,0.708 9.465,0.862C9.226,1.106 9.678,1.547 9.914,1.311M-3.196,1.693C-3.371,1.517 -4.482,1.965 -4.397,2.367C-3.993,2.959 -2.866,2.473 -3.196,1.693M25.452,3.013C26.168,1.217 21.968,0.144 23.904,1.79C24.572,1.743 24.622,3.446 25.452,3.013M26.035,-0.937C32.758,7.833 34.735,23.074 25.721,30.253C25.19,30.701 24.076,31.467 23.57,31.24C23.027,30.979 22.955,29.259 23.214,28.675C26.902,20.382 27.134,5.525 18.041,12.793C13.562,16.374 13.799,16.596 9.143,11.213C7.807,9.667 5.272,8.839 4.079,10.925C2.229,14.044 3.408,21.45 4.168,25.088C4.357,26.013 4.432,26.953 3.932,27.769C1.908,30.35 -2.085,33.545 -4.506,30.422C-11.399,22.831 -8.127,25.014 -6.84,16.556C-6.783,13.687 -6.533,9.059 -8.507,7.557C-9.382,6.818 -10.377,6.283 -9.712,4.89C-8.913,3.087 -6.664,-1.275 -5.037,-2.47C-0.262,-5.941 -0.655,6.238 2.826,3.784C4.091,2.624 4.975,0.888 6.302,-0.205C10.393,-3.573 12.549,3.359 16.027,4.07C19.367,4.414 22.125,-4.689 25.815,-1.155L26.035,-0.937Z" style="fill:rgb(35,31,32);fill-rule:nonzero;"/>
        </g>
        <g transform="matrix(1,0,0,1,259.7565,118.677)">
            <path d="M0,9.84C-0.095,10.148 -0.262,10.552 0.008,10.812C0.308,11.102 0.725,10.878 1.01,10.681C2.117,9.917 3.242,9.173 4.332,8.387C5.102,7.832 5.639,7.089 5.752,6.133C5.837,5.412 5.807,4.646 6.165,4.014C6.253,3.858 8.548,1.031 8.67,0.9C10.032,-0.564 8.912,-1.262 6.291,0.673C3.669,2.608 0.177,9.263 0,9.84" style="fill:rgb(35,31,32);fill-rule:nonzero;"/>
        </g>
        <g transform="matrix(1,0,0,1,602.4378,107.2682)">
            <path d="M0,0.643C-0.237,0.411 -0.852,0.968 -0.611,1.255C-0.575,1.298 0.218,0.856 0,0.643M-0.46,-0.123C-0.575,-0.237 -1.736,0.612 -1.531,0.795C-1.252,1.043 -0.28,0.053 -0.46,-0.123M0.46,-2.574C-0.374,-2.665 -0.257,-1.943 0.46,-1.962L0.46,-2.574ZM-0.218,-4.796C2.571,-5.068 1.482,-1.757 1.088,0.099C0.776,1.048 0.86,2.028 0.48,2.851C-0.425,3.733 -2.781,5.711 -4.006,4.867C-4.831,4.049 -4.649,2.205 -4.652,1.064C-4.709,-0.263 -3.994,-1.473 -3.177,-2.379C-3.021,-2.666 -3.227,-2.915 -3.22,-3.218C-2.99,-4.187 -1.102,-4.889 -0.471,-4.791L-0.218,-4.796Z" style="fill:rgb(35,31,32);fill-rule:nonzero;"/>
        </g>
        <g transform="matrix(1,0,0,1,593.9887,122.2381)">
            <path d="M0,45.634C-0.67,45.594 -2.431,46.646 -2.527,47.4C-1.709,48.178 0.009,46.367 0,45.634M0.178,45.047C0.448,45.338 1.551,44.076 0.864,43.939C0.352,43.837 -0.056,44.795 0.178,45.047M3.547,42.358C3.013,41.863 1.076,42.708 2.273,43.447C2.909,43.839 3.759,42.555 3.547,42.358M3.827,40.332C2.437,39.992 4.424,43.019 4.473,40.855C4.307,40.747 3.804,40.661 3.827,40.332M5.999,35.551C7.188,36.076 7.194,32.692 6.18,34.869C6.058,34.995 5.921,35.469 5.999,35.551M2.476,33.494C2.565,33.609 2.94,33.068 2.78,32.861C2.692,32.746 2.316,33.287 2.476,33.494M2.705,32.072C2.406,32.072 2.426,32.797 2.856,32.702C3.278,32.609 2.816,32.072 2.705,32.072M3.813,36.522C4.004,36.362 4.314,35.124 3.926,35.136C3.675,35.144 3.22,36.937 2.471,36.242C2.171,37.399 3.313,36.685 3.813,36.522M5.578,25.8C5.195,24.085 3.875,27.387 3.502,27.787C3.123,28.967 8.11,25.104 5.578,25.8M7.314,27.48C6.344,27.824 6.442,29.466 5.565,30.01C5.319,30.159 5.222,29.821 4.979,29.881C4.805,29.901 4.596,30.014 4.396,30.169C3.922,30.518 3.225,31.451 3.913,31.343C4.202,31.136 4.552,30.868 4.867,30.782C5.296,30.666 5.437,31.249 5.86,30.973C6.031,30.817 6.102,30.813 6.363,30.363C6.452,29.428 7.552,28.423 7.387,27.507L7.314,27.48ZM5.769,22.421C6.156,22.072 6.524,21.154 6.116,20.723C5.885,20.455 5.308,20.59 4.98,21.499C5.02,21.631 5.451,21.522 5.409,21.673C5.346,21.784 5.22,22.007 5.157,22.119C4.872,22.399 5.203,22.835 5.075,23.105C4.887,23.374 4.142,23.188 3.745,23.457C0.041,26.444 6.796,24.329 5.734,22.569L5.769,22.421ZM7.837,20.04C7.033,18.571 5.799,22.039 7.169,20.872C8.534,21.294 7.081,20.05 7.837,20.04M5.234,19.25C5.254,19.478 4.648,20.046 5.158,20.199C5.576,20.324 5.633,19.252 5.234,19.25M7.683,17.826C6.959,17.549 6.355,18.266 6.612,18.933C6.922,19.261 7.881,18.022 7.683,17.826M5.474,16.285C4.931,16.394 4.955,17.5 4.739,18.002C4.356,18.594 3.832,19.177 3.422,19.787C3.018,20.317 3.318,22.291 4.015,21.375C4.066,21.439 4.443,20.424 4.322,20.509C4.302,20.243 4.005,20.77 3.797,20.852C3.645,20.921 3.656,20.658 3.756,20.402C4.118,19.058 6.078,17.94 5.562,16.34L5.474,16.285ZM4.047,16.371C5.254,15.777 4.107,14.459 3.758,15.977C3.779,15.787 3.225,15.353 3.076,15.524C3.072,16.465 3.114,18.54 4.047,16.371M7.23,16.201C7.554,12.854 6.177,14.879 6.643,16.974C7.282,17.115 8.608,16.603 7.23,16.201M4.773,15.767C6.323,16.266 6.572,13.333 5.518,14.873C5.519,14.874 4.773,15.767 4.773,15.767M5.212,14.796C5.285,14.743 5.974,13.234 5.844,13.077C5.167,12.974 3.942,15.31 5.212,14.796M4.006,13.078C3.791,12.823 2.843,14.059 3.088,14.343C3.273,14.558 4.318,13.447 4.006,13.078M5.495,9.117C4.484,9.065 3.32,12.379 4.015,12.111C4.662,11.854 5.306,9.985 6.096,11.026C6.832,11.226 6.755,9.054 6.123,9.209C5.999,9.292 5.871,9.608 5.753,9.734C5.604,9.96 5.663,9.292 5.578,9.172L5.495,9.117ZM4.982,7.758C5.349,7.39 6.484,6.697 5.616,6.295C4.636,6.462 2.93,9.514 4.982,7.758M4.011,5.708C4.26,5.436 5.645,4.067 5.469,3.341C5.31,3.152 4.831,3.428 4.616,3.508C4.416,3.62 4.301,4.194 4.191,4.463C4.096,4.824 3.982,4.144 3.85,4.502C3.763,4.743 3.72,5.31 3.68,5.49C3.643,5.657 3.508,5.117 3.374,5.232C2.994,5.443 2.689,7.152 2.91,7.283C3.263,7.344 3.636,5.963 3.94,5.777L4.011,5.708ZM1.863,3.897C2.391,4.182 2.737,3.121 2.245,2.951C2.034,2.955 1.711,3.742 1.863,3.897M1.504,2.041C1.702,2.245 2.628,1.325 1.504,1.409L1.504,2.041ZM5.876,1.688C5.781,1.811 5.778,3.054 6.247,2.941C6.862,2.676 6.587,1.021 5.876,1.688M6.19,0.457C6.347,0.29 5.883,-0.177 5.732,-0.017C5.574,0.15 6.038,0.618 6.19,0.457M3.271,0.874C2.796,1.087 2.995,1.381 3.329,1.585C3.337,2.021 2.792,2.175 2.777,2.618C2.495,4.334 6.483,1.323 3.271,0.874M-0.891,2.868C-0.81,2.964 0.489,1.965 0.18,1.602C0.017,1.411 -1.195,2.503 -0.891,2.868M3.609,-1.486C-2.814,2.899 4.01,-0.658 3.673,-1.513L3.609,-1.486ZM5.385,-2.274C4.679,-2.567 4.489,-1.198 4.62,-0.85C4.992,-0.458 5.824,-1.775 5.385,-2.274M7.233,-4.704C9.214,-3.064 10.51,12.089 10.596,18.066C10.911,39.744 7.444,45.958 -5.424,51.693C-8.196,52.598 -7.67,50.268 -6.008,49.222C1.526,43.361 6.083,0.554 -4.346,4.926C-7.918,4.505 5,-6.964 6.309,-5.167C6.309,-5.167 6.941,-4.946 7.233,-4.704" style="fill:rgb(35,31,32);fill-rule:nonzero;"/>
        </g>
        <g transform="matrix(1,0,0,1,588.6546,126.1039)">
            <path d="M0,0.272C-0.608,1.004 -1.514,2.247 -0.889,2.656C-0.62,2.832 -0.263,2.647 0.002,2.465C0.71,1.978 1.417,1.491 2.125,1.004C2.417,0.803 3.701,0.151 3.465,-0.348C3.412,-0.459 3.295,-0.523 3.213,-0.615C2.976,-0.882 3.086,-1.295 3.17,-1.601C3.188,-1.664 3.376,-2.56 3.249,-2.49C2.174,-1.899 1.208,-1.117 0.404,-0.198C0.321,-0.102 0.173,0.064 0,0.272" style="fill:rgb(35,31,32);fill-rule:nonzero;"/>
        </g>
        <g transform="matrix(1,0,0,1,667.5566,114.1147)">
            <path d="M0,29.004C-0.07,29.327 -0.314,29.73 -0.661,29.803C-1.011,29.878 -0.877,29.545 -0.783,29.342C-0.729,29.223 -0.596,28.964 -0.292,28.714C0.011,28.463 0.06,28.727 0,29.004M-6.385,34.229C-6.587,34.547 -6.747,35.089 -7.161,35.164C-7.499,35.224 -7.948,35.183 -7.745,34.761C-7.629,34.518 -7.407,34.227 -7.139,34.139C-7.021,34.1 -6.993,34.035 -6.82,33.966C-6.647,33.897 -6.489,33.92 -6.387,33.961C-6.215,34.029 -6.312,34.114 -6.385,34.229M-8.578,32.003C-8.584,31.807 -8.321,31.469 -8.186,31.332C-7.914,31.056 -7.637,30.758 -7.353,30.497C-7.254,30.405 -7.042,30.192 -6.899,30.183C-6.899,30.183 -6.64,30.077 -6.596,30.346C-6.519,30.646 -6.669,30.918 -6.797,31.183C-7.04,31.683 -7.524,32.174 -8.114,32.187C-8.265,32.19 -8.572,32.19 -8.578,32.003M-11.139,31.536C-11.313,31.272 -10.864,30.6 -10.741,30.4C-10.37,29.797 -10.018,29.22 -9.491,28.747C-9.295,28.571 -8.9,27.797 -8.579,28.169C-8.257,28.541 -8.868,29.96 -9.269,30.35C-9.5,30.573 -10.84,31.991 -11.139,31.536M-14.121,3.744C-14.489,3.868 -15.753,4.223 -16.017,3.407C-16.278,2.583 -15.125,2.457 -13.824,2.25C-12.346,2.079 -11.03,1.388 -10.687,-0.191C-10.482,-0.646 -10.305,-1.504 -9.813,-1.434L-9.683,-1.338C-9.236,-0.387 -8.583,0.233 -7.224,0.222C-6.366,0.314 -4.8,0.098 -4.185,0.535C-11.621,4.487 -7.542,12.659 -8.725,20.247C-8.82,20.644 -8.967,20.853 -9.138,20.785C-12.539,17.783 -5.312,0.74 -14.121,3.744M-14.6,0.314C-14.504,0.207 -14.362,0.158 -14.229,0.104C-13.761,-0.085 -13.332,-0.375 -12.977,-0.738C-12.976,-0.74 -12.152,-1.773 -12.129,-1.455C-12.089,-0.905 -12.378,-0.367 -12.789,-0.004C-13.2,0.359 -13.72,0.571 -14.244,0.725C-14.369,0.762 -14.519,0.79 -14.617,0.703C-14.725,0.608 -14.697,0.421 -14.6,0.314M-8.876,-3.205C-8.881,-3.177 -8.878,-3.148 -8.881,-3.119C-8.758,-3.397 -8.634,-3.675 -8.511,-3.952C-8.488,-4.004 -8.448,-4.066 -8.393,-4.056C-8.35,-4.048 -8.328,-4.001 -8.312,-3.96C-8.114,-3.439 -7.916,-2.918 -7.718,-2.397C-7.667,-2.263 -7.616,-2.116 -7.659,-1.979C-7.715,-1.8 -7.924,-1.704 -8.107,-1.732C-8.291,-1.76 -8.446,-1.885 -8.564,-2.03C-8.81,-2.33 -8.922,-2.732 -8.881,-3.119C-8.887,-3.106 -8.893,-3.093 -8.899,-3.08L-8.876,-3.205ZM-8.672,-7.145L-8.615,-7.271C-8.618,-7.266 -8.619,-7.26 -8.622,-7.255C-8.532,-7.379 -8.341,-7.431 -8.197,-7.36C-8.015,-7.27 -7.925,-7.05 -7.929,-6.845C-7.932,-6.641 -8.011,-6.446 -8.089,-6.257C-8.134,-6.146 -8.182,-6.032 -8.266,-5.948C-8.351,-5.863 -8.482,-5.814 -8.591,-5.862C-8.717,-5.916 -8.766,-6.07 -8.785,-6.207C-8.834,-6.563 -8.776,-6.932 -8.622,-7.255C-8.645,-7.222 -8.666,-7.187 -8.672,-7.145M1.885,20.541C0.078,22.218 0.202,25.646 -1.871,27.063C-2.601,27.598 -3.675,28.116 -4.513,27.664L-4.701,27.534C-6.775,25.082 -7.652,5.671 -3.943,4.689C-3.368,4.511 -2.609,4.477 -1.973,4.404C1.312,4.146 2.011,0.564 1.904,-3.071C1.919,-5.376 -1.428,-5.814 -3.704,-5.74C-6.16,-5.704 -6.552,-6.861 -6.197,-9.136C-5.744,-12.19 -5.448,-16.555 -7.414,-16.592C-9.143,-16.544 -9.228,-13.159 -9.898,-11.434C-11.904,-5.702 -15.72,-1.966 -21.65,0.23C-26.088,1.578 -26.902,5.556 -22.582,5.201C-20.106,5.218 -14.91,4.684 -14.207,7.493C-13.136,13.998 -12.944,23.505 -16.386,29.109C-16.327,32.176 -12.831,33.076 -12.423,36.059C-11.996,45.596 -6.121,39.337 -2.191,36.012C1.342,33.021 3.384,28.927 4.763,24.613C5.347,23.292 6.986,21.247 6.437,19.97C5.437,18.349 2.971,19.473 1.885,20.541" style="fill:rgb(35,31,32);fill-rule:nonzero;"/>
        </g>
    </g>
</svg>
