<?xml version="1.0" encoding="UTF-8" standalone="no"?>
<!DOCTYPE svg PUBLIC "-//W3C//DTD SVG 1.1//EN" "http://www.w3.org/Graphics/SVG/1.1/DTD/svg11.dtd">
<svg width="100%" height="100%" viewBox="0 0 207 217" version="1.1" xmlns="http://www.w3.org/2000/svg" xmlns:xlink="http://www.w3.org/1999/xlink" xml:space="preserve" xmlns:serif="http://www.serif.com/" style="fill-rule:evenodd;clip-rule:evenodd;stroke-linejoin:round;stroke-miterlimit:2;">
    <g transform="matrix(0.948362,0,0,0.948362,-6.306886,11.00882)">
        <path d="M109.694,213.588C111.132,214.163 113.145,214.451 114.871,214.451C117.459,214.451 120.047,213.876 122.06,212.726L122.923,212.15C123.211,211.863 124.936,212.15 125.224,212.15C128.387,211.575 130.976,210.712 134.139,209.562C134.139,209.562 135.865,208.987 136.152,208.987C144.492,206.686 152.544,202.948 159.734,198.059C159.447,196.621 159.159,193.457 161.172,192.882L161.747,193.457C162.035,194.032 162.035,196.621 161.747,197.196C162.898,196.333 165.486,192.019 165.773,192.019L169.8,192.019C169.8,192.019 170.95,191.444 171.238,191.157C172.675,190.294 176.414,188.281 176.702,187.993C178.14,187.13 178.427,184.83 179.865,183.967C180.44,183.679 182.453,182.817 183.029,182.817L186.767,175.627C190.218,174.477 199.421,164.699 199.996,161.535L199.996,156.934C200.284,154.633 203.16,157.509 204.022,156.934C206.611,154.346 206.611,149.744 208.048,146.581C208.048,146.293 209.486,144.568 209.486,144.568C209.486,144.568 210.924,137.953 210.924,137.378C211.5,135.94 212.937,133.639 213.225,131.914L213.225,126.45C213.225,126.162 213.8,123.862 214.088,123.286L214.663,121.848C216.101,113.508 216.388,104.593 214.663,95.966C211.212,95.678 212.937,91.077 212.362,89.064C212.362,89.064 210.924,87.913 210.924,87.626C210.924,87.338 210.349,86.188 210.349,85.9C209.199,81.587 214.088,85.613 210.349,78.998C209.774,78.423 208.911,76.122 208.624,75.835C208.336,74.972 207.186,69.795 207.186,68.645C206.611,67.782 203.735,67.782 203.16,67.495C202.872,67.207 201.722,65.194 201.434,65.194C201.434,64.907 199.421,62.893 199.133,62.606C197.983,60.88 198.558,60.88 199.133,58.867L199.133,58.004C198.558,56.567 196.833,56.854 196.257,55.416C196.257,55.129 195.682,52.253 195.395,51.965C195.395,51.678 193.957,50.527 193.957,50.24C193.382,49.665 191.081,44.488 190.793,43.913C190.218,43.05 184.466,37.873 183.891,37.011C180.728,33.847 179.29,28.958 175.839,26.082C170.087,21.194 165.198,17.167 159.734,11.416C154.845,10.553 152.832,5.089 149.381,5.089C149.381,5.089 147.943,7.102 147.08,6.527C147.08,5.664 147.08,4.514 147.656,4.226C144.492,-0.088 138.74,-2.388 134.139,-4.977C132.989,-5.552 129.538,-7.277 129.25,-7.565C127.525,-8.14 125.799,-8.428 124.074,-8.428C116.309,-8.428 109.119,-3.251 102.792,0.487C95.315,4.801 88.413,8.54 80.936,13.716C80.361,14.291 83.524,16.592 84.099,16.592L83.236,17.455C82.949,16.592 79.498,15.442 78.635,15.442C78.347,15.442 74.896,16.592 74.034,17.455C73.458,17.743 70.007,21.769 69.432,22.056C69.145,22.344 67.132,22.919 67.132,22.919C62.243,24.932 66.844,28.958 63.105,29.821C61.955,29.534 61.955,28.671 62.243,27.808C58.504,28.958 55.916,30.684 53.903,33.847C53.615,34.135 53.04,36.148 53.04,36.148C52.465,37.011 49.589,39.599 49.014,40.174C48.726,40.462 46.713,40.749 46.713,41.037C45.275,41.612 45.563,43.338 44.412,43.913C44.412,43.913 42.399,44.488 42.112,44.776C41.824,44.776 40.674,46.789 40.674,47.076C38.661,49.377 34.059,50.815 33.484,54.266C33.196,54.553 33.484,55.991 33.484,56.279C32.909,56.854 28.883,61.456 28.883,62.031C28.595,62.318 28.308,65.482 28.02,65.769C28.02,66.344 25.144,68.358 24.857,68.645C24.857,68.933 24.281,71.809 23.994,72.096C23.994,72.096 22.556,73.247 22.556,73.534C22.556,73.534 21.981,76.41 21.693,77.56C21.693,78.135 21.118,81.587 20.83,82.162C20.83,82.162 19.392,84.175 19.392,84.462C19.105,84.75 18.817,85.9 18.817,85.9C19.105,87.338 19.105,93.953 18.817,95.391C18.817,95.966 17.379,100.28 17.379,100.855C17.092,101.142 17.379,103.731 17.379,104.018C17.092,104.306 16.517,105.456 16.517,105.744L16.517,106.031C16.804,106.319 20.255,106.894 19.392,108.62C19.105,109.77 17.667,109.482 16.517,109.195C14.503,114.084 16.804,118.397 17.954,122.424C18.242,123.862 17.379,123.574 17.379,125.012C17.092,125.3 17.092,127.6 17.379,128.175C17.379,129.901 18.242,131.339 19.392,131.914C19.392,132.777 19.968,137.378 20.255,138.241C20.255,138.816 21.118,139.966 21.693,140.542C23.994,137.091 28.02,141.117 27.445,142.267C26.582,141.979 24.281,143.13 23.994,143.705C23.994,144.28 24.569,146.581 24.857,147.444C25.144,147.731 27.157,149.457 27.445,149.744C27.445,150.032 28.02,152.62 28.02,152.908C28.883,155.496 34.059,162.11 36.648,163.836C38.661,164.699 38.373,162.398 40.674,162.973C40.961,164.986 39.236,166.424 39.811,168.725C40.386,171.026 49.301,177.065 51.314,178.79C51.602,178.79 53.615,181.091 53.903,181.091C54.19,181.379 57.929,181.091 58.216,181.091C58.504,181.091 59.079,181.666 59.079,181.954C50.739,182.817 57.929,185.692 60.805,187.993C64.543,191.157 67.994,193.745 72.308,195.758C72.596,195.758 74.609,196.333 74.609,196.333C75.759,197.483 80.073,199.497 81.798,199.497C82.374,199.784 85.249,202.372 85.537,202.66C86.975,203.81 91.864,207.261 92.727,207.549C95.315,208.987 99.054,208.699 101.929,209.562C103.367,210.137 104.518,212.438 105.956,210.425C105.956,212.438 108.544,213.301 109.694,213.588ZM162.61,176.202C162.035,176.202 158.584,176.49 158.009,176.202C157.433,176.202 152.544,175.627 151.682,175.627L147.08,175.627C147.08,175.627 145.067,174.764 144.78,174.764C144.492,174.477 140.466,174.189 140.178,173.901C138.74,173.614 127.525,169.875 126.087,169.3C125.511,169.3 123.211,168.725 122.923,168.725L120.91,168.725C120.622,168.725 120.047,167.862 120.047,167.862C116.884,166.137 95.027,154.346 93.589,152.908C88.125,150.895 84.674,146.006 80.361,142.842C79.785,142.842 76.622,141.692 76.334,141.404C76.047,141.404 75.472,140.829 75.472,140.542L76.334,139.679C75.759,139.391 73.746,137.091 73.171,136.515C72.883,136.515 70.87,135.077 70.583,135.077C70.583,134.79 69.72,132.777 69.432,132.489C68.857,131.914 65.981,129.613 65.406,129.038C63.393,129.901 63.681,125.3 63.105,124.149C62.53,123.574 61.667,121.848 61.38,121.848C61.092,121.273 56.778,118.973 56.203,118.973C56.203,118.685 55.628,118.11 55.341,118.11C54.478,117.247 52.465,114.371 52.177,114.084C51.027,112.071 55.341,110.92 54.478,109.195C54.19,108.62 52.752,105.744 52.177,104.881C52.177,104.593 50.739,102.58 50.739,102.293C50.452,102.005 49.876,99.417 49.876,99.129C49.589,98.842 47.576,96.253 47.288,95.966C45.563,93.378 48.726,91.364 48.151,88.489C48.151,88.201 47.576,85.613 47.288,85.325C47.288,84.75 47.576,80.436 47.288,79.861C47.288,79.286 46.713,74.972 46.713,74.397C46.713,73.822 47.288,70.658 47.288,69.508C47.576,69.508 48.151,68.07 48.151,68.07L48.151,63.469C50.164,56.279 58.216,47.364 65.406,45.351L65.406,41.037C66.556,39.311 66.556,43.625 67.707,43.913L71.445,43.913C72.021,43.913 75.759,42.475 76.334,42.187C76.909,42.187 80.073,41.9 80.936,41.037C82.374,39.599 82.374,37.873 84.674,40.174C87.55,40.462 99.916,41.612 102.792,41.9C105.668,41.9 108.256,39.599 110.557,37.873C112.57,39.311 110.269,41.612 108.831,41.9C110.557,41.612 115.446,42.187 116.884,42.187C117.459,42.475 121.485,45.063 122.06,45.351C122.348,45.638 124.074,46.213 124.361,46.213C124.936,46.501 128.1,46.789 128.387,47.076C128.962,47.364 131.263,49.377 131.551,49.377C134.139,51.39 136.44,51.39 139.316,52.54C143.054,54.266 146.505,57.142 149.381,59.442C149.669,59.73 151.682,60.88 151.682,61.168C151.969,61.168 152.257,61.743 152.544,62.031C153.407,62.606 158.871,68.933 159.734,69.508C161.46,71.809 160.597,69.22 162.61,69.508C162.898,69.795 164.048,70.658 164.335,71.233C164.335,70.658 165.486,69.22 165.773,68.645L166.636,68.645L166.636,72.671C166.636,72.959 165.773,73.534 165.773,73.534C165.773,75.835 167.211,78.423 168.937,79.861C168.937,79.573 169.512,78.423 169.8,78.423C170.087,78.135 170.95,78.135 170.95,78.423L170.95,85.325L172.675,85.325C172.963,85.9 174.113,89.351 174.401,89.926C174.689,90.789 176.127,93.665 176.702,93.665C177.277,93.953 180.728,93.953 181.303,93.665C182.453,95.678 176.989,95.678 178.14,98.554C178.427,99.129 181.303,104.018 181.303,104.881C181.591,105.169 181.303,108.044 181.303,108.62C181.591,108.62 182.166,110.633 182.166,110.92C182.453,111.208 183.029,114.371 183.029,114.946C183.316,115.234 185.329,118.973 185.329,119.26L185.329,123.286C185.329,123.862 185.904,127.025 185.904,127.313L185.904,133.352C185.904,133.639 186.767,134.79 186.767,135.077L186.767,137.378C186.48,139.391 185.329,148.019 185.329,149.744C183.604,151.757 183.316,154.633 183.891,156.934C186.192,158.372 190.506,156.359 191.369,158.372C191.944,159.235 190.793,160.097 189.931,159.81C189.643,159.81 187.055,158.947 186.767,159.235C186.48,159.235 184.754,160.673 184.754,160.673L183.029,160.673L181.303,162.398C181.303,162.398 181.591,164.411 181.303,164.699C179.29,170.45 175.264,173.326 169.8,175.627C168.937,175.915 165.198,177.928 164.911,177.928C164.623,177.64 162.898,176.49 162.61,176.202ZM180.728,73.534C180.44,73.247 179.29,72.384 179.002,72.096C179.002,71.809 179.578,71.233 179.865,71.233L183.029,71.233C183.316,71.233 185.042,69.795 185.329,69.508C185.904,69.22 187.63,70.658 187.63,71.233L187.63,76.698L186.767,76.698C185.617,76.122 181.303,74.109 180.728,73.534ZM186.767,99.992C186.192,98.266 187.63,96.541 188.205,95.391C188.493,94.815 188.493,92.515 189.931,93.09C191.944,93.953 192.231,95.391 194.82,94.528C195.682,95.391 190.218,96.829 189.068,98.554C188.205,99.704 188.78,99.992 187.63,100.855C187.342,100.855 186.767,100.28 186.767,99.992ZM47.288,155.496C46.138,154.921 44.125,156.071 45.85,152.908C46.425,152.045 47.001,151.757 47.576,151.757C50.164,151.757 52.752,158.084 49.876,156.934C49.589,156.934 47.576,155.496 47.288,155.496ZM32.046,101.717C31.471,101.142 29.745,100.28 29.745,99.992C29.458,99.992 29.458,99.417 29.745,99.129C30.896,98.842 34.922,97.116 35.785,99.992C35.785,100.28 35.21,101.43 34.922,101.717C33.772,102.868 33.196,102.293 32.046,101.717ZM109.694,4.226C108.831,3.363 108.831,-0.088 110.557,1.35C110.845,1.638 113.145,3.938 113.72,4.226C111.995,6.527 111.132,6.239 109.694,4.226ZM67.707,177.065C67.707,176.49 68.282,174.477 68.57,173.901C69.145,173.614 70.007,174.189 70.295,174.764L70.295,178.79C68.857,179.653 67.707,178.215 67.707,177.065ZM37.223,139.104C38.085,137.953 40.099,134.79 41.249,135.653C41.536,136.228 41.536,137.953 41.249,138.241C41.249,138.241 38.948,139.391 38.085,139.679L37.223,139.679L37.223,139.104ZM148.518,41.9C148.231,41.037 148.518,39.599 149.381,39.311C150.531,40.174 152.257,44.2 150.244,44.776C149.956,44.2 148.806,42.187 148.518,41.9ZM130.113,43.05C131.263,40.749 134.139,41.612 135.289,43.05C133.851,43.625 131.838,44.2 130.113,43.913L130.113,43.05ZM189.931,153.77C190.506,151.757 197.12,153.195 192.231,156.071L189.931,153.77ZM109.694,202.66L109.694,199.497C109.694,199.497 110.269,198.921 110.557,198.921C111.42,199.497 111.707,201.222 111.995,202.085C112.283,203.523 109.982,204.386 109.694,202.66ZM110.557,192.882C110.557,191.157 114.871,192.019 113.72,193.457C113.433,194.032 111.707,195.47 111.132,195.758C111.132,195.47 110.557,193.17 110.557,192.882ZM48.151,50.24C47.576,49.377 46.713,47.939 48.151,47.076C49.876,47.651 50.452,49.665 49.876,51.102C49.014,51.39 48.439,50.815 48.151,50.24ZM193.957,159.81C193.669,159.81 193.669,159.235 193.957,159.235C195.107,156.934 198.558,160.96 196.257,162.398C195.97,162.11 194.244,160.385 193.957,159.81ZM38.085,67.495C37.51,65.769 39.811,63.756 40.674,65.769C41.249,67.782 38.948,69.22 38.085,67.495ZM155.708,182.817C155.133,181.666 154.558,179.941 154.845,178.79C155.42,179.078 159.447,182.529 156.571,183.104C156.283,183.104 155.708,182.817 155.708,182.817ZM45.85,144.568C46.138,143.417 47.288,140.542 47.288,140.542L48.151,140.542C48.726,142.267 47.288,144.855 45.85,145.718L45.85,144.568ZM44.987,124.149C44.125,120.123 50.452,121.848 45.85,125.012C45.563,125.012 44.987,124.437 44.987,124.149ZM174.401,65.194C173.826,64.044 175.551,62.031 176.702,62.606C176.989,64.044 175.551,67.782 174.401,65.194ZM87.263,174.764C87.838,172.464 90.714,175.627 91.001,176.202L87.263,176.202C86.975,176.202 86.975,175.052 87.263,174.764ZM20.83,110.92L20.83,110.057L24.857,110.057C25.144,110.057 25.719,110.633 25.719,110.92L24.857,111.783L20.83,110.92ZM104.23,163.836L104.23,161.535L105.093,161.535C108.831,164.124 104.805,165.849 104.23,163.836ZM200.859,127.313C200.284,126.162 202.009,124.149 203.16,125.012C203.735,126.162 202.584,127.6 201.434,128.175C201.434,128.175 200.859,127.6 200.859,127.313ZM134.427,175.627C135.002,174.477 136.152,174.477 137.015,174.764C137.302,175.915 136.152,178.215 134.427,177.065L134.427,175.627ZM182.166,173.901L182.166,171.601L183.891,171.601L183.891,174.764C183.316,175.052 182.453,174.477 182.166,173.901ZM75.472,161.535L75.472,160.673C76.622,160.097 79.498,162.11 78.635,162.973C78.635,163.261 78.06,163.261 77.772,162.973C77.485,162.973 75.759,161.823 75.472,161.535ZM28.02,123.286C28.308,122.711 29.17,122.136 29.745,122.424C29.745,122.999 29.458,127.025 28.02,125.875L28.02,123.286ZM122.06,-3.539C123.498,-5.264 126.662,-3.251 122.923,-1.813L122.06,-1.813L122.06,-3.539ZM191.369,111.783C191.944,111.495 194.244,111.208 194.82,112.358C194.244,114.084 191.369,113.508 191.369,111.783ZM28.02,85.325C28.02,85.038 28.595,83.887 28.883,83.6C30.321,82.162 31.471,87.338 28.883,85.9C28.595,85.9 28.02,85.325 28.02,85.325ZM130.113,203.523C130.976,201.51 134.139,203.81 133.276,204.386L130.113,204.386L130.113,203.523ZM117.747,39.311C116.596,37.586 120.335,37.586 120.91,37.873L118.322,40.174C118.322,40.174 117.747,39.599 117.747,39.311ZM106.818,175.627C107.106,174.764 108.831,174.189 108.831,175.627C108.831,176.777 107.969,177.928 106.818,177.065L106.818,175.627ZM120.047,3.651L120.047,1.35C121.773,0.2 121.485,3.938 121.485,4.226C120.91,4.514 120.047,3.938 120.047,3.651ZM35.785,122.424L37.223,120.986C39.523,121.848 37.51,123.862 35.785,123.286L35.785,122.424ZM84.099,170.738C83.812,170.738 83.812,170.163 84.099,169.875L86.4,169.875L86.4,171.601C85.249,171.888 84.387,171.601 84.099,170.738ZM135.289,32.122L137.59,32.122C138.74,33.272 136.152,34.135 135.289,33.847L135.289,32.122ZM84.674,198.059C84.962,196.908 86.4,196.908 87.263,197.196C88.125,198.346 84.674,199.784 84.674,198.059ZM22.556,129.613C21.981,128.463 24.281,127.313 24.857,129.038L23.419,130.476C23.131,130.476 22.556,129.901 22.556,129.613ZM53.04,130.476C53.327,130.188 54.765,129.326 55.341,129.613L55.341,131.339L53.04,131.339C52.752,131.051 52.752,130.764 53.04,130.476ZM30.608,70.371C30.608,70.083 31.183,69.508 31.183,69.508C32.046,69.795 32.046,71.233 32.046,72.096L30.608,72.096C30.321,71.809 30.321,70.658 30.608,70.371ZM122.923,176.202C123.786,174.764 126.087,175.627 125.224,177.065C124.649,177.352 123.211,177.352 122.923,176.202ZM174.976,77.56C175.264,77.273 176.414,76.698 176.702,76.698C177.564,77.848 176.127,79.286 174.976,78.998L174.976,77.56ZM17.954,101.717C17.379,100.28 19.392,99.417 20.255,100.855L18.817,102.293C18.817,102.293 18.242,101.717 17.954,101.717ZM154.845,59.442L154.845,58.867C155.708,58.58 158.009,58.867 157.433,60.305C156.571,60.593 155.42,60.018 154.845,59.442ZM88.7,20.618C88.7,20.331 89.276,19.756 89.563,19.756C91.001,20.618 90.138,22.919 88.7,22.056L88.7,20.618ZM112.858,176.202L112.858,174.764C113.72,173.614 115.446,177.065 113.72,177.065C113.433,177.065 112.858,176.49 112.858,176.202ZM144.205,189.431C144.78,188.568 145.93,188.568 146.505,189.431C146.218,190.581 144.78,190.581 144.205,190.294C143.917,190.294 143.917,189.719 144.205,189.431ZM170.662,181.091L172.1,181.091C172.388,181.954 172.1,183.967 170.662,183.104L170.662,181.091ZM89.563,11.416L89.563,9.69C90.426,8.827 92.152,11.991 90.426,11.991C90.138,11.991 89.563,11.416 89.563,11.416ZM209.486,109.195C210.349,107.757 212.362,108.62 211.5,110.057C210.924,110.345 209.774,110.345 209.486,109.195ZM80.361,158.372C81.511,157.222 82.661,161.823 80.361,160.673L80.361,158.372ZM197.983,149.744C198.271,148.882 198.271,148.019 199.133,147.444L199.133,150.607L197.983,150.607C197.695,150.607 197.695,150.032 197.983,149.744ZM207.186,95.966L207.186,95.391C207.761,95.103 209.199,95.103 209.486,95.966C208.911,97.116 207.761,97.116 207.186,95.966ZM23.419,96.829C23.994,95.678 25.144,95.678 25.719,96.829C25.144,97.979 23.994,97.979 23.419,96.829ZM141.616,195.183C141.329,194.608 141.904,193.745 142.479,193.457C143.629,194.032 143.629,195.47 142.479,195.758C142.479,195.47 141.904,195.183 141.616,195.183ZM48.151,106.894C48.439,106.319 49.014,106.031 49.876,106.031L49.876,107.757L48.151,107.757L48.151,106.894ZM94.452,157.509C94.165,157.509 94.165,157.222 94.452,156.934L96.465,156.934C97.04,158.084 95.027,158.947 94.452,157.509ZM61.38,133.352L61.38,132.489L63.105,132.489C63.393,133.352 62.818,133.927 62.243,134.215C61.955,134.215 61.667,133.639 61.38,133.352ZM91.864,32.985C92.152,32.409 92.727,31.834 93.589,32.122C93.877,32.985 92.727,34.135 91.864,33.847L91.864,32.985ZM68.57,188.856L70.295,188.856C70.295,189.719 69.432,190.869 68.57,190.294L68.57,188.856ZM38.085,56.279L38.948,56.279L38.948,58.867L38.085,58.867L38.085,56.279ZM33.484,85.9C33.772,85.613 34.347,84.75 34.922,85.325L34.922,86.763L33.484,86.763C33.196,86.763 33.196,86.188 33.484,85.9ZM106.818,181.954C106.818,181.666 107.394,181.091 107.681,181.091C107.969,181.379 108.544,181.954 108.256,182.817L106.818,182.817L106.818,181.954ZM74.609,184.83L75.472,183.967C76.047,184.255 76.622,184.83 76.334,185.692C75.759,185.98 74.896,185.405 74.609,184.83ZM94.452,191.157C94.452,190.869 95.027,190.294 95.027,190.294C95.603,190.581 95.89,191.157 95.89,192.019L94.452,192.019C94.165,191.732 94.165,191.157 94.452,191.157ZM208.624,90.789C208.911,90.214 209.774,89.639 210.349,89.926L210.349,91.652L208.624,90.789ZM75.472,193.457C76.334,193.17 77.485,193.457 77.772,194.32L75.472,194.32L75.472,193.457ZM97.328,204.386L97.903,203.523C98.478,203.81 99.054,204.673 98.766,205.248C98.191,205.536 97.328,204.961 97.328,204.386ZM200.859,89.926C201.146,89.351 201.722,88.776 202.297,89.064C202.584,89.926 202.009,90.502 201.434,90.789L200.859,89.926ZM42.112,55.416C42.112,55.416 42.687,54.841 42.974,54.841L43.837,55.416C43.55,55.991 42.687,56.567 42.112,56.279L42.112,55.416ZM129.25,199.497L129.25,198.921C129.825,198.634 130.688,199.209 130.976,199.497L130.113,200.359C129.825,200.359 129.25,199.784 129.25,199.497ZM101.067,4.226C101.354,3.938 102.217,3.363 102.792,3.651C103.08,3.938 102.505,4.801 101.929,5.089L101.067,4.226ZM202.297,151.47L204.022,151.47L204.022,152.333L202.297,152.333L202.297,151.47ZM116.884,183.104L117.747,183.104L117.747,184.83L116.884,184.83L116.884,183.104ZM49.014,173.901L49.876,173.901L49.876,175.627L49.014,175.627L49.014,173.901ZM56.203,113.221C56.203,113.508 56.778,114.659 57.066,114.946L57.066,112.358C56.778,112.358 56.203,112.933 56.203,113.221ZM201.434,106.894L201.434,105.744C202.584,106.031 202.584,106.894 202.297,107.757L201.434,106.894ZM192.231,66.632L193.957,66.632L193.957,67.495C193.094,67.782 192.519,67.207 192.231,66.632ZM102.792,14.579C102.792,14.291 103.367,13.716 103.655,13.716L103.655,15.442L102.792,15.442L102.792,14.579ZM112.858,187.13L114.296,187.13L114.296,187.993L112.858,187.993L112.858,187.13ZM196.257,124.149L197.12,124.149C197.408,124.724 196.833,125.587 196.257,125.875L196.257,124.149ZM154.845,198.059L155.708,198.059L155.708,198.921L154.27,198.921C154.27,198.634 154.845,198.059 154.845,198.059ZM108.831,206.111L109.694,206.111C109.982,206.686 109.407,207.261 108.831,207.549L108.831,206.111ZM125.224,16.017L126.087,15.442L126.949,16.017L126.087,16.592L125.224,16.017ZM126.087,171.601C126.662,171.313 127.525,171.888 127.812,172.464C126.949,172.751 126.374,172.176 126.087,171.601ZM185.329,113.221C185.617,113.508 186.192,114.084 185.904,114.946L185.329,114.946L185.329,113.221ZM108.256,41.9L108.831,41.9L108.256,41.9ZM114.296,207.549C114.296,208.124 113.72,208.124 113.72,207.549C113.433,206.974 114.583,206.974 114.296,207.549ZM162.61,187.13C162.61,187.706 162.035,187.706 161.747,187.13C161.747,186.555 162.61,186.555 162.61,187.13ZM101.067,183.104L101.929,183.104L101.929,183.967L101.067,183.967L101.067,183.104ZM124.361,181.091L125.224,181.091L125.224,181.954L124.361,181.954L124.361,181.091ZM74.609,177.928C75.184,177.928 75.184,178.503 74.609,178.79C74.321,178.79 74.321,177.928 74.609,177.928ZM101.929,178.79C101.929,179.078 101.354,179.078 101.067,178.79C101.067,178.215 102.217,178.215 101.929,178.79ZM92.727,177.065C92.727,177.64 92.152,177.64 91.864,177.065C91.864,176.777 92.727,176.777 92.727,177.065ZM140.178,176.202C140.466,176.49 140.466,177.065 140.178,177.065C139.603,177.352 139.603,176.202 140.178,176.202ZM118.322,175.915C118.897,175.915 118.897,176.777 118.322,176.777C118.034,176.777 118.034,175.915 118.322,175.915ZM103.655,170.738L104.23,170.738L104.23,171.601L103.655,171.601L103.655,170.738ZM57.641,166.137C57.641,166.712 57.066,166.712 57.066,166.137C56.778,165.849 57.641,165.849 57.641,166.137ZM65.406,163.836C65.406,164.411 64.831,164.411 64.543,163.836C64.543,163.261 65.694,163.261 65.406,163.836ZM45.85,162.398C46.425,162.398 46.425,162.973 45.85,162.973C45.275,163.261 45.275,162.11 45.85,162.398ZM57.066,155.496C57.354,155.496 57.354,156.071 57.066,156.071C56.491,156.359 56.491,155.208 57.066,155.496ZM54.478,152.333L55.341,152.333L55.341,152.908L54.478,152.908L54.478,152.333ZM67.132,139.679L67.132,140.542L66.269,140.542L67.132,139.679ZM201.434,138.528C202.009,138.528 202.009,139.391 201.434,139.391C201.146,139.391 201.146,138.528 201.434,138.528ZM202.297,133.352L203.16,133.352L203.16,134.215L202.297,134.215L202.297,133.352ZM23.994,132.489L24.857,132.489L24.857,133.352L23.994,133.352L23.994,132.489ZM44.987,126.45L45.85,126.45L45.85,127.313L44.987,126.45ZM208.048,124.437C208.336,124.437 208.336,125.3 208.048,125.3C207.473,125.3 207.473,124.437 208.048,124.437ZM24.857,117.247L25.719,117.247L25.719,118.11L24.857,118.11L24.857,117.247ZM40.674,117.247C40.386,117.822 39.811,117.822 39.811,117.247C39.523,116.672 40.674,116.672 40.674,117.247ZM57.641,116.384C57.641,116.672 58.216,117.247 58.216,117.247C58.504,116.672 57.929,115.809 57.641,115.809L57.641,116.384ZM34.059,114.946C34.059,115.234 33.484,115.234 33.484,114.946C33.196,114.371 34.347,114.371 34.059,114.946ZM190.793,109.77C191.081,109.77 191.081,110.633 190.793,110.633C190.218,110.633 190.218,109.77 190.793,109.77ZM188.205,105.744L189.931,105.744L189.931,106.031L188.205,106.031L188.205,105.744ZM205.46,89.064L206.323,88.489L206.323,89.926L205.46,89.064ZM41.249,86.475C41.824,86.475 41.824,87.338 41.249,87.338C40.961,87.338 40.961,86.475 41.249,86.475ZM197.983,81.299C197.695,81.011 197.695,80.436 197.983,80.436L198.271,80.436L198.271,82.162C198.271,81.874 197.983,81.299 197.983,81.299ZM205.46,81.299C206.035,81.299 206.035,81.874 205.46,82.162C205.173,82.162 205.173,81.011 205.46,81.299ZM188.205,77.273C188.78,77.273 188.78,77.848 188.205,77.848C187.918,77.848 187.918,77.273 188.205,77.273ZM30.608,65.194L31.183,65.769L30.608,65.769L30.608,65.194ZM180.728,60.305L181.303,60.305L181.303,61.168L180.728,61.168L180.728,60.305ZM145.642,53.403C146.218,53.691 146.218,53.978 145.642,54.266C145.355,54.266 145.355,53.403 145.642,53.403ZM141.041,44.776L141.616,44.776L141.041,45.351L141.041,44.776ZM157.433,43.913L158.009,43.913L157.433,44.776L157.433,43.913ZM158.009,38.736L158.871,38.736L158.871,39.311L158.009,39.311L158.009,38.736ZM167.499,39.024C167.787,39.024 167.787,39.887 167.499,39.887C166.924,39.887 166.924,39.024 167.499,39.024ZM70.583,37.011L71.445,37.011L70.295,38.736C70.295,38.449 70.583,37.298 70.583,37.011ZM66.269,35.285C65.981,35.86 65.694,35.86 65.406,35.285C65.406,34.998 66.269,34.998 66.269,35.285ZM111.995,33.847C111.995,34.422 111.42,34.422 111.132,33.847C111.132,33.272 112.283,33.272 111.995,33.847ZM107.681,31.547L108.831,31.547L107.681,32.985L107.681,31.547ZM168.074,28.671L168.937,28.671L168.937,29.246L168.074,29.246L168.074,28.671ZM77.772,26.945L78.635,27.808L77.772,28.671L77.772,26.945ZM98.766,26.082L98.766,26.945L97.903,26.945L98.766,26.082ZM87.263,25.507L87.838,26.082L87.263,26.082L87.263,25.507ZM141.041,21.481L141.616,21.481C141.904,22.056 141.329,22.631 141.041,22.919L141.041,21.481ZM78.635,21.481L79.498,21.481L79.498,22.056L78.635,22.056L78.635,21.481ZM157.433,16.88C157.721,16.88 157.721,17.743 157.433,17.743C156.858,17.743 156.858,16.88 157.433,16.88ZM87.263,14.867C87.55,14.867 87.55,15.729 87.263,15.729C86.687,15.729 86.687,14.867 87.263,14.867ZM141.616,14.004C142.191,14.004 142.191,14.867 141.616,14.867C141.329,14.867 141.329,14.004 141.616,14.004ZM141.616,8.827L142.479,8.827L142.479,9.69L141.616,8.827Z" style="fill:rgb(63,41,22);fill-rule:nonzero;"/>
    </g>
</svg>
