<?xml version="1.0" encoding="UTF-8" standalone="no"?>
<!DOCTYPE svg PUBLIC "-//W3C//DTD SVG 1.1//EN" "http://www.w3.org/Graphics/SVG/1.1/DTD/svg11.dtd">
<svg width="100%" height="100%" viewBox="0 0 207 217" version="1.1" xmlns="http://www.w3.org/2000/svg" xmlns:xlink="http://www.w3.org/1999/xlink" xml:space="preserve" xmlns:serif="http://www.serif.com/" style="fill-rule:evenodd;clip-rule:evenodd;stroke-linejoin:round;stroke-miterlimit:2;">
    <g transform="matrix(1,0,0,1,-1013,-1385)">
        <path d="M1107.986,1593.655C1108.769,1594.177 1109.553,1594.438 1110.336,1594.438C1112.685,1594.438 1115.035,1592.35 1117.907,1593.655C1132.787,1594.438 1148.19,1590.522 1161.243,1583.212C1161.243,1582.951 1162.287,1581.907 1162.548,1581.646C1162.809,1581.646 1164.636,1580.602 1165.159,1580.341C1165.681,1580.08 1168.552,1579.035 1168.813,1578.774C1175.34,1575.12 1182.127,1567.549 1187.871,1562.85C1195.964,1555.801 1203.796,1547.708 1209.278,1538.571C1209.278,1538.571 1210.322,1536.744 1210.322,1536.483C1211.888,1531.522 1207.45,1528.129 1203.534,1526.562L1201.968,1526.562C1201.446,1526.823 1197.53,1528.912 1196.486,1529.434C1193.092,1531 1197.791,1534.133 1194.397,1536.483C1193.353,1537.005 1191.787,1535.438 1190.742,1535.699C1189.698,1536.744 1184.738,1541.443 1183.694,1541.965C1183.433,1542.226 1181.083,1544.053 1180.822,1544.314C1179.256,1545.62 1176.645,1549.013 1174.557,1550.058C1174.296,1550.058 1170.641,1551.363 1170.38,1551.363C1169.335,1551.885 1162.809,1555.018 1161.765,1555.54C1161.765,1555.54 1159.937,1556.062 1159.676,1556.323C1159.415,1556.323 1158.371,1556.845 1158.11,1556.845C1158.11,1557.106 1156.282,1558.412 1156.021,1558.412C1153.672,1559.195 1147.406,1558.673 1145.579,1560.5C1144.013,1562.067 1144.535,1562.589 1143.229,1563.372C1142.185,1563.111 1142.446,1561.022 1142.707,1560.5C1139.836,1560.761 1125.216,1560.761 1122.084,1560.5C1121.561,1560.5 1118.429,1559.978 1117.907,1559.717C1117.645,1559.717 1116.079,1558.412 1115.818,1558.412C1115.035,1557.628 1110.336,1556.323 1109.553,1556.323C1109.292,1556.062 1107.203,1555.018 1106.681,1554.757C1105.376,1554.235 1100.154,1551.363 1098.849,1550.58C1098.849,1550.841 1098.327,1550.841 1098.066,1550.58C1095.455,1549.275 1094.933,1547.969 1092.584,1545.62C1092.323,1545.359 1090.756,1544.314 1090.495,1544.314C1089.712,1543.531 1086.057,1540.137 1085.535,1539.354C1084.491,1538.571 1083.969,1541.443 1083.185,1541.704L1081.358,1541.704L1081.358,1540.921C1081.358,1540.398 1082.402,1537.527 1082.402,1537.266C1083.185,1535.699 1081.619,1534.916 1080.575,1534.394C1079.531,1533.611 1079.27,1531.783 1078.486,1530.739C1078.225,1530.478 1075.615,1527.607 1074.832,1526.562C1074.57,1526.301 1072.221,1524.213 1071.96,1523.691C1070.655,1521.341 1071.177,1518.469 1070.132,1516.12C1069.871,1515.859 1068.566,1514.292 1068.566,1514.031L1068.566,1511.16C1068.305,1508.027 1066.739,1505.416 1068.566,1502.545C1069.61,1500.978 1070.655,1501.761 1072.743,1501.239C1073.004,1500.978 1075.354,1499.934 1075.615,1499.673L1079.792,1499.673C1080.053,1499.673 1081.097,1500.456 1081.358,1500.456C1083.185,1500.978 1083.708,1498.368 1084.752,1499.151L1086.057,1500.456C1086.318,1500.717 1087.885,1501.761 1088.407,1502.023C1089.973,1502.806 1095.977,1503.067 1098.066,1503.328C1100.938,1503.589 1103.287,1501.5 1105.115,1502.023C1114.252,1504.111 1124.955,1503.589 1134.092,1504.894C1134.875,1504.894 1140.097,1505.416 1141.924,1505.416C1145.318,1505.677 1142.446,1503.589 1146.884,1504.894C1148.19,1505.155 1151.583,1506.2 1151.844,1506.2L1155.238,1506.2C1155.499,1506.2 1157.327,1507.244 1157.588,1507.505C1157.849,1507.766 1160.72,1509.332 1161.243,1509.593C1162.287,1510.376 1163.07,1514.031 1163.853,1514.031C1164.114,1514.031 1165.159,1513.509 1165.159,1513.248C1165.42,1514.292 1166.203,1515.076 1167.247,1515.337C1172.729,1516.381 1175.34,1508.81 1176.384,1504.894C1176.645,1504.633 1176.384,1502.806 1176.384,1502.545C1176.645,1502.545 1177.95,1502.023 1177.95,1502.023C1180.039,1499.412 1183.955,1492.363 1182.911,1489.231L1187.088,1484.793C1188.132,1484.009 1186.304,1481.66 1186.304,1480.877C1186.304,1480.616 1187.61,1480.093 1187.871,1480.093L1193.614,1474.35C1194.397,1473.045 1195.18,1466.779 1192.048,1467.301L1180.822,1467.301C1177.95,1467.563 1173.512,1468.868 1170.902,1469.39C1170.38,1469.651 1167.247,1470.173 1166.725,1470.173L1164.375,1470.173C1162.809,1471.217 1163.07,1472.784 1161.243,1472.262C1160.198,1472.001 1160.198,1470.956 1160.459,1470.173C1159.937,1470.434 1157.849,1470.695 1157.588,1470.956C1156.805,1470.956 1151.583,1472.262 1151.322,1472.262C1149.756,1472.523 1148.712,1474.611 1146.884,1474.35C1146.623,1474.089 1142.968,1473.567 1142.707,1473.567C1140.358,1473.306 1133.048,1474.611 1131.221,1475.655C1131.221,1475.916 1129.915,1476.961 1129.915,1477.222C1128.871,1477.744 1128.349,1475.916 1128.349,1475.655C1122.345,1475.133 1116.34,1476.7 1110.075,1478.005L1110.858,1479.31L1108.769,1479.31C1108.508,1479.31 1106.681,1480.093 1106.681,1480.093L1102.504,1480.093C1101.721,1480.093 1101.199,1481.138 1100.415,1480.877C1099.893,1480.616 1097.805,1479.31 1097.544,1479.31C1095.194,1479.31 1092.062,1482.965 1092.584,1484.793C1092.845,1485.315 1093.367,1486.881 1093.367,1487.664C1090.495,1488.708 1091.8,1485.837 1091.278,1484.793C1091.017,1484.531 1089.19,1483.748 1088.929,1483.748L1088.929,1482.965L1090.495,1481.399C1087.624,1481.138 1085.274,1482.704 1082.402,1482.182C1082.402,1482.182 1081.619,1481.399 1081.358,1481.399L1079.27,1481.399C1077.442,1481.921 1076.137,1483.226 1074.048,1482.965C1073.787,1482.965 1072.221,1482.182 1071.96,1482.182C1070.393,1482.704 1069.871,1484.793 1067.783,1484.009C1066.217,1483.748 1063.345,1480.877 1062.823,1479.31C1061.778,1476.178 1064.128,1472.784 1064.389,1470.173C1064.389,1469.39 1064.128,1463.125 1064.389,1462.341C1064.389,1461.819 1067,1458.686 1067.261,1458.164C1068.044,1456.598 1067.522,1455.293 1068.566,1453.726C1069.871,1452.16 1073.265,1449.549 1072.743,1446.939C1075.876,1444.067 1078.747,1440.673 1080.575,1437.018C1080.836,1436.757 1081.358,1434.408 1081.358,1434.147C1081.88,1432.319 1084.752,1433.103 1086.057,1432.058C1087.362,1431.014 1093.367,1425.793 1094.411,1425.01C1097.544,1425.271 1100.938,1423.965 1101.721,1420.572L1112.946,1420.572C1116.601,1420.572 1119.212,1416.656 1122.867,1417.7C1123.128,1417.961 1124.955,1419.266 1124.955,1419.266C1125.477,1419.266 1128.088,1419.788 1128.349,1420.05C1128.61,1420.05 1130.96,1420.572 1131.221,1420.572C1132.526,1420.833 1138.791,1421.877 1139.836,1422.138C1141.402,1423.704 1143.752,1423.704 1145.579,1425.01C1145.84,1425.271 1147.406,1426.837 1147.667,1426.837C1147.929,1427.098 1150.8,1428.142 1151.322,1428.403C1151.322,1428.403 1152.367,1428.926 1152.367,1429.187C1157.066,1432.58 1156.805,1445.372 1163.592,1445.372C1164.375,1445.372 1165.42,1445.111 1166.725,1444.589C1166.986,1444.589 1168.552,1443.284 1168.813,1443.284C1170.902,1442.24 1172.729,1441.979 1174.557,1440.412C1174.818,1439.89 1178.212,1436.757 1178.734,1436.235C1178.734,1436.235 1180.561,1435.713 1180.822,1435.713C1181.083,1435.452 1182.65,1434.408 1182.911,1434.147C1183.694,1433.625 1188.654,1428.926 1189.176,1428.403C1189.437,1428.142 1191.787,1427.098 1192.048,1426.837C1197.791,1422.66 1199.357,1417.961 1192.048,1414.306C1191.787,1414.306 1189.437,1413.784 1189.176,1413.784C1187.349,1413.001 1187.61,1409.607 1185.782,1408.563C1183.433,1407.519 1180.039,1407.78 1177.95,1405.691C1177.428,1405.43 1174.296,1402.036 1173.774,1401.775C1173.774,1401.514 1172.729,1400.992 1172.468,1400.992C1170.902,1400.731 1169.858,1401.253 1168.813,1402.297C1167.769,1402.036 1167.769,1400.731 1168.813,1400.209C1168.291,1399.165 1165.681,1398.904 1165.159,1398.904C1164.636,1398.643 1159.676,1398.381 1158.893,1398.12C1158.893,1398.12 1154.194,1396.032 1152.367,1395.249C1152.105,1394.988 1150.278,1393.943 1149.756,1393.682C1148.19,1393.682 1140.619,1393.16 1139.314,1393.16C1135.137,1392.899 1116.862,1392.899 1112.946,1393.16C1112.946,1393.16 1111.902,1393.682 1111.641,1393.682L1105.898,1393.682C1105.115,1393.943 1099.893,1395.249 1098.066,1396.032C1097.805,1396.032 1094.933,1397.337 1094.411,1397.337C1094.15,1397.598 1090.234,1397.859 1089.712,1398.12C1089.451,1398.12 1087.885,1398.643 1087.624,1398.904C1086.318,1399.426 1079.009,1402.82 1076.92,1403.603C1071.96,1405.952 1067.522,1408.302 1064.389,1413.001C1064.128,1413.001 1063.606,1413.523 1063.606,1413.784C1063.606,1413.262 1063.345,1413.001 1063.084,1413.001C1061.256,1413.001 1056.557,1417.178 1055.774,1417.7C1055.513,1418.222 1051.336,1421.616 1050.031,1422.921L1048.725,1424.226C1048.464,1424.488 1047.42,1426.054 1047.159,1426.315C1045.854,1428.142 1043.243,1429.448 1042.46,1432.058C1041.938,1433.103 1043.765,1433.625 1043.765,1434.93C1043.765,1435.974 1041.416,1437.28 1040.11,1434.147C1039.588,1435.191 1036.456,1439.368 1035.933,1440.412C1035.672,1440.673 1035.411,1441.456 1035.411,1441.718C1035.411,1441.979 1034.889,1443.806 1034.628,1444.067C1032.801,1447.461 1031.757,1448.766 1030.451,1451.638C1028.885,1455.293 1027.057,1458.686 1026.013,1462.341C1025.752,1463.647 1027.318,1464.691 1026.796,1465.735C1026.013,1467.824 1025.752,1467.301 1024.708,1469.39C1023.925,1470.956 1022.619,1474.611 1022.619,1474.872L1022.619,1489.231C1020.792,1493.93 1020.27,1499.151 1020.531,1504.111C1023.403,1502.023 1024.447,1505.155 1022.097,1505.416C1022.097,1506.461 1022.88,1508.81 1022.619,1510.376C1022.619,1510.638 1021.836,1512.987 1022.097,1513.248C1022.097,1514.815 1023.925,1517.425 1025.23,1518.208L1026.796,1518.208C1028.885,1518.73 1027.057,1520.819 1024.708,1520.297C1023.664,1526.562 1028.363,1534.916 1031.757,1540.137C1032.54,1541.182 1035.672,1539.354 1034.628,1541.704L1033.323,1541.704L1033.323,1543.531C1034.106,1551.102 1036.195,1548.23 1039.588,1552.929L1040.11,1553.974C1040.11,1553.974 1042.46,1555.018 1042.46,1555.54L1041.677,1556.845C1041.677,1557.106 1043.765,1558.151 1043.765,1558.412C1044.548,1558.934 1046.898,1561.544 1047.159,1562.067C1047.42,1562.067 1047.942,1563.111 1047.942,1563.372C1048.987,1562.85 1051.075,1560.761 1052.119,1561.283C1052.902,1563.633 1051.858,1564.677 1049.248,1564.155C1048.987,1565.199 1050.031,1566.243 1050.814,1566.766C1051.075,1566.505 1052.119,1565.199 1052.902,1565.46C1054.991,1566.243 1052.38,1567.027 1052.902,1568.332C1053.163,1568.593 1054.991,1570.159 1055.252,1570.42C1055.252,1570.42 1054.991,1571.726 1055.252,1571.726C1055.252,1571.987 1055.774,1572.509 1055.774,1572.509C1057.079,1573.553 1059.69,1576.164 1059.951,1576.164C1061.256,1576.686 1067.261,1580.341 1068.566,1580.863C1070.132,1581.907 1070.655,1578.774 1071.96,1579.558C1071.699,1580.08 1071.699,1581.907 1071.96,1582.429C1072.221,1582.951 1074.832,1585.04 1075.615,1585.301C1075.876,1585.562 1077.964,1585.562 1078.486,1585.301C1078.225,1584.518 1078.225,1583.473 1079.27,1583.212C1079.27,1583.212 1079.792,1583.735 1079.792,1583.996C1080.053,1583.996 1080.575,1585.301 1080.575,1585.301C1082.924,1587.65 1086.057,1587.912 1088.929,1588.695C1089.451,1588.956 1093.367,1590.783 1093.889,1590.783C1094.15,1591.044 1099.371,1591.305 1100.938,1591.566L1104.592,1591.566C1104.854,1591.566 1105.115,1591.044 1105.115,1590.783C1105.376,1591.305 1107.464,1593.394 1107.986,1593.655ZM1035.933,1524.474C1036.456,1523.168 1038.805,1523.952 1038.022,1525.257L1035.933,1525.257L1035.933,1524.474ZM1043.765,1526.04C1044.548,1525.518 1045.071,1526.301 1045.332,1526.562C1044.81,1527.084 1044.026,1526.301 1043.765,1526.04ZM1045.332,1553.452C1045.854,1552.146 1047.942,1553.19 1047.159,1553.974C1046.637,1554.235 1045.593,1554.235 1045.332,1553.452ZM1050.814,1528.129C1050.814,1528.129 1048.725,1526.823 1049.248,1526.04C1052.902,1524.996 1053.425,1529.173 1052.902,1531.522C1052.641,1531 1051.075,1528.651 1050.814,1528.129ZM1051.597,1547.186L1051.597,1546.403L1052.902,1546.403C1053.163,1546.925 1052.641,1547.708 1052.119,1547.708L1051.597,1547.186ZM1062.04,1553.452L1063.606,1553.452C1063.867,1554.235 1062.823,1555.279 1062.04,1554.757L1062.04,1553.452ZM1062.04,1559.717C1063.084,1558.151 1065.172,1559.195 1065.694,1560.5L1062.04,1560.5L1062.04,1559.717ZM1067.261,1531.522C1067.522,1531.783 1068.305,1532.306 1067.783,1532.828L1065.694,1532.828L1067.261,1531.522ZM1065.694,1547.186C1065.955,1546.925 1066.739,1546.403 1067.261,1546.403C1068.566,1546.403 1067.522,1549.797 1065.694,1548.491L1065.694,1547.186ZM1071.177,1571.204C1071.699,1570.159 1073.004,1570.159 1073.265,1571.204C1073.004,1571.987 1071.96,1571.987 1071.177,1571.726L1071.177,1571.204ZM1071.177,1550.058C1070.916,1548.23 1071.177,1546.403 1073.265,1547.186C1074.048,1548.491 1072.743,1550.058 1071.96,1550.58C1071.699,1550.58 1071.177,1550.058 1071.177,1550.058ZM1080.575,1558.412C1081.619,1557.106 1081.88,1557.628 1083.185,1556.323C1084.491,1555.018 1085.013,1551.885 1087.624,1552.929C1087.624,1552.929 1088.146,1553.452 1088.407,1553.452C1087.885,1553.452 1085.796,1553.713 1085.535,1553.974C1083.708,1555.018 1086.057,1558.673 1083.969,1559.195L1081.358,1559.195C1081.097,1559.195 1080.575,1558.673 1080.575,1558.412ZM1084.752,1548.491C1083.969,1547.186 1086.057,1546.403 1086.84,1547.708C1087.362,1549.013 1085.274,1549.797 1084.752,1548.491ZM1087.624,1581.646L1088.929,1581.646C1089.451,1582.429 1088.407,1583.473 1087.624,1583.212L1087.624,1581.646ZM1091.8,1571.204L1093.367,1570.42L1093.367,1571.726C1092.845,1572.248 1092.062,1571.465 1091.8,1571.204ZM1094.411,1565.982L1094.411,1565.46C1094.933,1565.199 1096.239,1563.111 1096.761,1562.85C1097.283,1562.328 1097.805,1563.111 1098.066,1563.372C1099.893,1565.721 1096.5,1568.071 1094.411,1565.982ZM1099.632,1574.858C1098.849,1573.814 1098.588,1573.031 1098.849,1571.726C1100.154,1570.943 1103.548,1575.381 1100.938,1576.164C1100.677,1575.903 1099.893,1574.858 1099.632,1574.858ZM1103.287,1563.372C1102.765,1562.85 1104.331,1559.978 1104.592,1561.283L1105.115,1564.155C1104.592,1564.416 1103.548,1564.416 1103.287,1563.372ZM1099.632,1586.084C1099.893,1585.562 1100.677,1584.518 1100.938,1584.518L1106.681,1584.518C1107.464,1584.518 1107.725,1581.385 1108.769,1582.429C1109.03,1583.735 1108.769,1585.04 1107.986,1586.084C1107.203,1585.823 1104.07,1585.823 1103.287,1586.084C1102.243,1586.345 1101.46,1588.956 1099.632,1588.173C1099.371,1587.912 1099.371,1586.345 1099.632,1586.084ZM1110.075,1571.726L1110.075,1570.42C1111.38,1569.898 1112.163,1571.987 1110.858,1572.509L1110.075,1571.726ZM1115.296,1589.478C1115.818,1588.434 1116.601,1588.434 1117.123,1589.478C1116.601,1590.522 1115.818,1590.522 1115.296,1589.478ZM1116.601,1575.381C1116.601,1573.814 1121.822,1574.336 1120.778,1576.164C1120.256,1576.425 1118.429,1577.208 1117.907,1577.469C1116.601,1577.73 1116.601,1576.425 1116.601,1575.381ZM1118.69,1565.46C1118.429,1565.199 1118.429,1564.938 1118.69,1564.938C1118.951,1564.677 1121.039,1563.633 1121.561,1563.372L1122.084,1563.372C1123.389,1565.199 1119.473,1567.288 1118.69,1565.46ZM1129.915,1565.46C1130.176,1565.199 1130.699,1564.677 1131.221,1564.938C1131.743,1565.199 1130.96,1565.721 1130.699,1565.982L1129.915,1565.46ZM1134.092,1588.695C1134.092,1588.434 1133.831,1585.04 1135.659,1586.084L1135.659,1588.695C1135.659,1588.956 1135.137,1589.217 1134.875,1589.478C1134.875,1589.217 1134.353,1588.956 1134.092,1588.695ZM1134.875,1562.85L1135.659,1562.85L1135.659,1564.155L1134.875,1564.155L1134.875,1562.85ZM1135.659,1575.381C1135.398,1575.381 1134.353,1574.858 1134.092,1574.858L1134.092,1574.075C1139.052,1573.031 1139.052,1577.469 1137.747,1577.469C1137.486,1576.947 1135.92,1575.642 1135.659,1575.381ZM1146.101,1576.686C1145.84,1576.164 1146.623,1573.814 1146.884,1573.292C1147.145,1573.031 1148.19,1573.031 1148.451,1573.292C1148.451,1574.336 1149.234,1576.686 1147.667,1577.469C1147.145,1577.73 1146.362,1577.208 1146.101,1576.686ZM1158.893,1562.067C1158.632,1561.022 1159.415,1558.934 1160.459,1558.412C1163.853,1559.978 1160.459,1565.982 1158.893,1562.067ZM1162.548,1575.381C1162.548,1575.12 1163.07,1574.336 1163.07,1574.075C1164.375,1572.77 1165.42,1577.208 1163.07,1576.164C1163.07,1576.164 1162.548,1575.642 1162.548,1575.381ZM1037.239,1518.73C1038.022,1517.686 1040.11,1518.469 1039.588,1519.514C1038.805,1519.775 1037.761,1519.514 1037.239,1518.73ZM1167.247,1570.42C1167.508,1569.898 1168.291,1569.376 1168.813,1569.637C1169.074,1570.42 1168.03,1571.465 1167.247,1571.204L1167.247,1570.42ZM1043.765,1510.376L1043.765,1509.593L1045.332,1509.593C1045.593,1510.115 1045.071,1510.899 1044.548,1511.16C1044.548,1510.899 1044.026,1510.376 1043.765,1510.376ZM1168.03,1564.938C1168.03,1564.677 1167.508,1563.111 1167.247,1562.85C1169.074,1561.022 1170.902,1558.412 1172.468,1556.323L1172.468,1553.974C1172.729,1552.668 1176.645,1553.19 1175.862,1554.757C1175.601,1555.54 1174.296,1558.412 1173.774,1559.195C1172.99,1560.5 1169.858,1560.239 1169.597,1562.067L1169.597,1564.938C1169.597,1564.938 1169.074,1565.199 1168.813,1565.46C1168.552,1565.199 1168.291,1564.938 1168.03,1564.938ZM1177.167,1564.938L1177.95,1564.155C1177.95,1564.155 1180.561,1565.199 1181.605,1565.46C1181.605,1565.46 1182.127,1565.982 1182.389,1565.982C1181.605,1567.288 1177.95,1568.854 1177.95,1568.332L1177.167,1564.938ZM1177.95,1559.195L1177.95,1557.628C1178.473,1557.106 1180.561,1556.062 1180.822,1556.323L1181.605,1556.845L1178.734,1559.717C1178.473,1559.717 1177.95,1559.195 1177.95,1559.195ZM1180.039,1561.283C1180.822,1561.022 1181.344,1561.544 1181.605,1562.067C1181.083,1562.328 1180.3,1561.805 1180.039,1561.283ZM1024.708,1508.027L1025.23,1507.505L1026.013,1508.027C1025.752,1508.549 1025.23,1509.071 1024.708,1508.81C1024.447,1508.81 1024.447,1508.288 1024.708,1508.027ZM1186.304,1550.58L1188.393,1550.58C1188.915,1552.146 1187.871,1553.452 1186.304,1552.929L1186.304,1550.58ZM1024.708,1498.368C1025.23,1498.107 1025.752,1498.629 1026.013,1499.151L1024.708,1499.151L1024.708,1498.368ZM1039.588,1470.173C1039.066,1469.651 1039.849,1469.129 1040.11,1468.868C1040.633,1468.607 1041.938,1467.563 1042.46,1467.301C1042.721,1468.868 1042.46,1471.74 1040.11,1470.956C1040.11,1470.956 1039.588,1470.434 1039.588,1470.173ZM1040.11,1463.647C1039.588,1462.08 1041.155,1459.731 1043.243,1460.253C1044.026,1461.297 1040.633,1461.558 1041.677,1464.43C1041.155,1464.691 1040.372,1464.169 1040.11,1463.647ZM1049.248,1487.664C1049.248,1487.664 1048.725,1487.142 1048.725,1486.881C1049.248,1484.793 1053.947,1486.881 1052.902,1488.447C1051.336,1488.708 1050.553,1488.447 1049.248,1487.664ZM1059.951,1508.81C1060.212,1508.288 1060.734,1507.766 1061.256,1508.027C1061.517,1508.81 1061.256,1510.899 1059.951,1510.376L1059.951,1508.81ZM1067.261,1518.208C1067.783,1516.903 1069.871,1517.686 1069.349,1518.73L1067.261,1518.73C1067,1518.73 1067,1518.469 1067.261,1518.208ZM1092.584,1560.5L1092.584,1559.717C1093.628,1559.195 1094.15,1561.283 1093.889,1562.067L1093.367,1562.067C1093.367,1561.805 1092.845,1560.761 1092.584,1560.5ZM1113.73,1559.717C1114.513,1559.456 1115.557,1560.5 1115.296,1561.283L1113.73,1561.283L1113.73,1559.717ZM1039.588,1444.589C1039.849,1444.85 1039.849,1445.895 1039.588,1446.156C1039.066,1446.417 1039.066,1444.589 1039.588,1444.589ZM1050.031,1453.204L1050.814,1452.421L1051.597,1453.204L1050.814,1453.726L1050.031,1453.204ZM1051.597,1494.191C1051.858,1493.669 1052.38,1493.146 1052.902,1493.408C1053.163,1494.191 1052.641,1494.713 1052.119,1494.974L1051.597,1494.191ZM1058.124,1530.739C1058.646,1530.478 1059.69,1531.522 1059.168,1532.306L1058.124,1532.306L1058.124,1530.739ZM1058.646,1488.447L1059.168,1487.664L1059.951,1488.447L1059.168,1489.231L1058.646,1488.447ZM1063.606,1486.881L1064.911,1486.881C1064.65,1487.403 1064.128,1487.925 1063.606,1487.664L1063.606,1486.881ZM1063.606,1539.354L1064.389,1538.571C1064.65,1538.832 1065.172,1539.615 1064.911,1540.137C1064.389,1540.398 1063.867,1539.876 1063.606,1539.354ZM1150.539,1579.558L1151.322,1578.774C1151.583,1579.035 1152.105,1579.558 1151.844,1580.341C1151.322,1580.602 1150.8,1580.08 1150.539,1579.558ZM1123.65,1496.018L1123.65,1494.974C1124.694,1495.235 1125.738,1496.018 1126.522,1496.801C1125.738,1498.368 1124.172,1497.323 1123.65,1496.018ZM1182.911,1544.837C1183.172,1544.837 1184.216,1544.314 1184.477,1544.314C1185.782,1544.314 1185.521,1547.186 1182.911,1546.403L1182.911,1544.837ZM1038.805,1442.501L1038.805,1440.412C1040.372,1439.629 1041.155,1442.762 1039.588,1443.284C1039.327,1443.284 1038.805,1442.762 1038.805,1442.501ZM1055.774,1478.527L1055.774,1478.005C1057.079,1477.483 1058.646,1478.266 1059.168,1479.31L1058.646,1480.093L1055.774,1478.527ZM1058.646,1437.018C1059.168,1436.757 1059.69,1437.28 1059.951,1437.541C1059.69,1438.063 1059.168,1438.585 1058.646,1438.324L1058.646,1437.018ZM1064.389,1446.156C1064.128,1445.895 1063.084,1444.067 1062.823,1444.067C1062.823,1444.067 1060.734,1442.762 1061.256,1441.718C1063.084,1440.934 1064.911,1443.545 1065.694,1444.067C1068.827,1446.156 1068.044,1446.939 1066.478,1446.939C1065.694,1446.939 1064.65,1446.678 1064.389,1446.156ZM1073.265,1492.885C1072.221,1491.319 1071.699,1488.97 1069.349,1490.014C1069.088,1489.231 1069.61,1488.186 1070.132,1487.664L1070.393,1487.664C1077.181,1490.014 1076.137,1493.408 1074.309,1493.408C1074.048,1493.408 1073.526,1493.408 1073.265,1492.885ZM1071.96,1438.324C1071.96,1438.063 1072.482,1438.063 1072.743,1438.324L1072.743,1438.846L1071.177,1438.846C1071.177,1438.846 1071.699,1438.324 1071.96,1438.324ZM1074.832,1438.846L1075.615,1438.324L1076.398,1438.846L1075.615,1439.629L1074.832,1438.846ZM1082.402,1487.664C1082.924,1486.62 1084.23,1486.62 1084.752,1487.664C1084.491,1488.708 1083.185,1488.708 1082.402,1488.447L1082.402,1487.664ZM1110.858,1485.576C1111.38,1485.837 1111.902,1486.359 1111.641,1486.881L1110.858,1486.881L1110.858,1485.576ZM1134.875,1490.014L1137.747,1487.664L1138.53,1488.447C1138.008,1489.231 1136.181,1491.058 1134.875,1490.536L1134.875,1490.014ZM1136.964,1499.673L1136.964,1498.368C1138.53,1497.585 1138.791,1499.673 1138.53,1500.456C1138.008,1500.717 1137.225,1500.195 1136.964,1499.673ZM1141.924,1486.881C1140.097,1484.531 1142.446,1480.616 1145.579,1481.399C1145.84,1483.226 1145.318,1482.704 1144.796,1484.009C1144.535,1484.793 1144.013,1487.664 1144.013,1488.447C1143.229,1488.97 1141.924,1487.142 1141.924,1486.881ZM1149.756,1492.102C1150.539,1490.797 1151.583,1489.231 1153.15,1490.014C1153.15,1490.014 1153.672,1490.536 1153.933,1490.536C1155.76,1493.408 1152.628,1493.146 1150.539,1492.885C1150.278,1492.624 1149.756,1492.363 1149.756,1492.102ZM1152.367,1498.368C1152.889,1497.323 1154.977,1495.496 1156.021,1496.018C1156.544,1496.54 1152.889,1499.412 1152.367,1499.151L1152.367,1498.368ZM1158.11,1490.014C1157.849,1489.231 1158.632,1488.708 1158.893,1488.447C1159.415,1488.447 1160.198,1489.492 1160.459,1490.014C1160.459,1490.275 1159.937,1491.319 1159.676,1491.319C1159.415,1491.058 1158.371,1490.275 1158.11,1490.014ZM1159.676,1496.018C1159.676,1496.018 1159.154,1494.974 1158.893,1494.974C1158.893,1494.713 1157.588,1494.452 1157.588,1494.191C1157.327,1493.93 1157.327,1492.885 1157.588,1492.885C1159.676,1492.102 1160.459,1494.974 1161.243,1496.018L1161.243,1496.801C1160.459,1497.062 1159.937,1496.54 1159.676,1496.018ZM1046.637,1432.58C1046.637,1432.58 1046.898,1431.536 1047.159,1431.275C1047.681,1430.753 1047.942,1430.231 1048.725,1430.492C1054.991,1432.58 1046.637,1434.93 1046.637,1432.58ZM1052.902,1442.501C1053.686,1439.629 1058.907,1441.718 1058.124,1442.501C1056.035,1441.456 1054.469,1445.895 1053.686,1444.589C1053.425,1444.328 1052.902,1442.762 1052.902,1442.501ZM1062.04,1432.058C1061.517,1431.014 1063.345,1429.187 1064.389,1429.709C1065.172,1431.536 1063.084,1433.886 1062.04,1432.058ZM1160.459,1483.748L1160.459,1482.965L1161.765,1482.965C1162.026,1483.487 1161.504,1484.009 1161.243,1484.009C1160.982,1484.009 1160.459,1483.748 1160.459,1483.748ZM1169.597,1486.359C1169.335,1486.62 1168.291,1486.62 1168.03,1486.359C1167.769,1485.837 1169.858,1485.837 1169.597,1486.359ZM1173.251,1496.018C1172.468,1495.235 1174.557,1494.191 1175.079,1495.496C1175.601,1496.54 1173.774,1497.585 1173.251,1496.018ZM1177.95,1490.014L1177.95,1489.231C1178.734,1488.708 1179.778,1489.753 1179.256,1490.536C1178.734,1490.797 1178.212,1490.275 1177.95,1490.014ZM1062.823,1426.315L1062.823,1425.793C1063.606,1425.271 1064.65,1426.054 1064.389,1426.837C1063.606,1427.098 1063.084,1426.576 1062.823,1426.315ZM1071.177,1434.147C1070.916,1433.625 1071.438,1432.841 1071.96,1432.58C1072.221,1433.103 1073.004,1434.147 1072.743,1434.93C1071.96,1435.191 1071.438,1434.669 1071.177,1434.147ZM1070.393,1425.793C1071.177,1424.226 1072.743,1423.704 1074.048,1424.226C1075.093,1426.837 1071.96,1426.315 1070.393,1425.793ZM1074.832,1432.058L1076.398,1432.058L1076.398,1432.58C1075.615,1433.103 1075.093,1432.319 1074.832,1432.058ZM1080.575,1429.709L1081.358,1429.709L1081.358,1431.275L1080.575,1431.275L1080.575,1429.709ZM1080.575,1411.435L1081.358,1410.912L1081.88,1411.435L1081.358,1412.218L1080.575,1411.435ZM1086.057,1405.691C1086.318,1405.43 1087.101,1404.647 1087.624,1405.169L1087.624,1406.474L1086.057,1406.474L1086.057,1405.691ZM1086.84,1423.443C1088.407,1423.182 1089.451,1424.226 1088.929,1425.793L1086.84,1425.793L1086.84,1423.443ZM1091.278,1413.784C1091.278,1413.523 1091.8,1413.001 1091.8,1413.001C1092.845,1413.262 1092.845,1414.306 1092.584,1414.828C1092.584,1415.089 1092.062,1415.089 1091.8,1414.828C1091.8,1414.567 1091.278,1414.045 1091.278,1413.784ZM1101.721,1417.178C1101.721,1416.917 1102.243,1416.395 1102.504,1416.395C1103.809,1416.917 1103.026,1419.005 1101.721,1418.483L1101.721,1417.178ZM1107.986,1415.611C1107.464,1414.306 1108.247,1413.523 1109.553,1413.001C1111.902,1413.784 1108.769,1418.222 1107.986,1415.611ZM1115.296,1397.337C1115.035,1397.337 1114.513,1396.815 1114.513,1396.554C1115.296,1394.988 1117.123,1396.293 1117.907,1397.337C1117.907,1397.598 1117.384,1398.12 1117.123,1398.12C1116.862,1398.12 1115.557,1397.598 1115.296,1397.337ZM1118.69,1400.209C1118.69,1399.687 1119.734,1397.337 1120.778,1396.554C1122.867,1397.337 1120.517,1401.775 1118.951,1401.775L1118.69,1401.775C1118.429,1401.514 1118.429,1400.47 1118.69,1400.209ZM1128.088,1402.297C1126.26,1400.992 1125.477,1399.687 1125.738,1397.337L1127.305,1397.337L1127.305,1399.426L1131.221,1403.603C1129.915,1404.125 1128.61,1402.82 1128.088,1402.297ZM1132.787,1397.337C1132.526,1396.815 1133.048,1396.032 1133.57,1396.032C1134.614,1396.554 1134.614,1397.598 1133.57,1398.12C1133.309,1398.12 1132.787,1397.598 1132.787,1397.337ZM1132.787,1412.218C1133.048,1411.435 1134.353,1411.435 1134.875,1411.435L1134.875,1413.784L1132.787,1413.784L1132.787,1412.218ZM1134.875,1417.178C1135.137,1416.917 1135.92,1415.873 1136.442,1415.611C1138.791,1414.045 1139.836,1417.178 1136.442,1418.483L1134.875,1418.483L1134.875,1417.178ZM1141.141,1417.7C1141.663,1416.656 1142.707,1416.656 1143.229,1417.7C1142.707,1418.744 1141.663,1418.744 1141.141,1417.7ZM1150.539,1410.129L1150.539,1409.346L1151.322,1409.346L1151.322,1410.912L1150.539,1410.129ZM1155.238,1407.258C1156.544,1406.474 1158.11,1409.085 1157.588,1410.129C1156.282,1410.129 1155.238,1408.302 1155.238,1407.258ZM1158.893,1434.147C1159.415,1432.58 1162.026,1429.187 1163.853,1429.709C1164.375,1431.014 1159.937,1436.235 1158.893,1435.713L1158.893,1434.147ZM1165.159,1411.435C1165.42,1409.868 1166.725,1407.78 1168.291,1407.78C1169.074,1407.78 1169.597,1408.302 1170.38,1409.346C1166.725,1410.651 1169.074,1411.696 1167.247,1413.001C1166.986,1413.262 1165.42,1413.262 1165.159,1413.001L1165.159,1411.435ZM1176.384,1433.364C1176.645,1433.103 1177.689,1432.058 1177.95,1432.058C1179.778,1432.841 1177.689,1435.713 1176.384,1434.93L1176.384,1433.364ZM1184.477,1418.483C1184.738,1417.439 1184.999,1414.828 1185.26,1414.828L1185.782,1414.828C1186.304,1416.395 1186.304,1418.744 1184.477,1419.266L1184.477,1418.483ZM1093.889,1583.473C1094.15,1583.473 1094.15,1584.257 1093.889,1584.257C1093.367,1584.257 1093.367,1583.473 1093.889,1583.473ZM1097.544,1581.646C1097.805,1581.907 1097.805,1582.429 1097.544,1582.429C1097.022,1582.429 1097.022,1581.646 1097.544,1581.646ZM1134.875,1580.341L1135.659,1580.341L1135.659,1580.863L1134.875,1580.341ZM1071.177,1576.686L1071.96,1577.469L1071.177,1577.469L1071.177,1576.686ZM1153.15,1576.164L1153.933,1576.164L1153.15,1576.686L1153.15,1576.164ZM1076.398,1575.12C1076.659,1575.12 1076.659,1575.903 1076.398,1575.903C1075.876,1575.903 1075.876,1575.12 1076.398,1575.12ZM1092.584,1574.858L1093.367,1574.858L1093.367,1575.381L1092.584,1575.381L1092.584,1574.858ZM1158.893,1575.381C1158.893,1575.903 1158.371,1575.903 1158.11,1575.381C1158.11,1575.12 1159.154,1575.12 1158.893,1575.381ZM1170.38,1575.381C1170.119,1575.903 1169.597,1575.903 1169.597,1575.381C1169.335,1575.12 1170.38,1575.12 1170.38,1575.381ZM1140.358,1573.292L1141.141,1573.292L1141.141,1574.075L1140.358,1574.075L1140.358,1573.292ZM1082.402,1570.682C1082.924,1570.682 1082.924,1571.465 1082.402,1571.465C1082.141,1571.465 1082.141,1570.682 1082.402,1570.682ZM1117.123,1570.42L1117.907,1570.42L1117.907,1571.204L1117.123,1570.42ZM1105.898,1566.766L1106.681,1566.766L1106.681,1567.549L1105.898,1567.549L1105.898,1566.766ZM1151.844,1565.46L1152.367,1565.46L1152.367,1565.982L1151.844,1565.982L1151.844,1565.46ZM1075.615,1565.199C1075.876,1565.199 1075.876,1565.721 1075.615,1565.721C1075.093,1565.721 1075.093,1565.199 1075.615,1565.199ZM1086.057,1565.46C1086.057,1565.721 1085.535,1565.721 1085.535,1565.46C1085.274,1565.199 1086.318,1565.199 1086.057,1565.46ZM1077.703,1557.628C1078.225,1557.89 1078.225,1558.151 1077.703,1558.412C1077.181,1558.412 1077.181,1557.628 1077.703,1557.628ZM1052.902,1554.757L1053.686,1554.757L1053.686,1555.54L1052.902,1555.54L1052.902,1554.757ZM1098.849,1554.757L1098.849,1555.54L1098.066,1555.54L1098.849,1554.757ZM1182.389,1553.19C1182.65,1553.19 1182.65,1553.713 1182.389,1553.713C1181.866,1553.713 1181.866,1553.19 1182.389,1553.19ZM1075.615,1549.275C1075.876,1549.275 1075.876,1549.797 1075.615,1550.058C1075.093,1550.058 1075.093,1549.275 1075.615,1549.275ZM1180.039,1545.359C1180.561,1545.359 1180.561,1545.881 1180.039,1545.881C1179.778,1545.881 1179.778,1545.359 1180.039,1545.359ZM1035.411,1542.748L1035.933,1542.748L1035.933,1543.531L1035.411,1543.531L1035.411,1542.748ZM1057.34,1542.748C1057.863,1542.748 1057.863,1543.27 1057.34,1543.531C1056.818,1543.531 1056.818,1542.748 1057.34,1542.748ZM1199.88,1541.965C1200.141,1542.226 1200.141,1542.748 1199.88,1542.748C1199.357,1542.748 1199.357,1541.965 1199.88,1541.965ZM1071.96,1541.182C1072.221,1541.182 1072.221,1541.965 1071.96,1541.965C1071.699,1541.965 1071.699,1541.182 1071.96,1541.182ZM1045.332,1538.049C1045.593,1538.049 1045.593,1538.571 1045.332,1538.571C1044.81,1538.832 1044.81,1537.788 1045.332,1538.049ZM1207.711,1534.394C1208.234,1534.394 1208.234,1534.916 1207.711,1535.177C1207.45,1535.177 1207.45,1534.133 1207.711,1534.394ZM1046.115,1521.602L1046.637,1521.602L1046.637,1522.385L1046.115,1522.385L1046.115,1521.602ZM1030.973,1520.558C1031.495,1520.558 1031.495,1521.341 1030.973,1521.341C1030.712,1521.341 1030.712,1520.558 1030.973,1520.558ZM1042.46,1516.903L1043.243,1516.903L1043.243,1517.425L1042.46,1517.425L1042.46,1516.903ZM1051.597,1514.553C1051.858,1514.815 1051.858,1515.337 1051.597,1515.337C1051.075,1515.598 1051.075,1514.553 1051.597,1514.553ZM1029.668,1511.16L1030.973,1511.16L1030.973,1511.682L1029.668,1511.682L1029.668,1511.16ZM1169.597,1506.722C1169.858,1506.722 1169.858,1507.244 1169.597,1507.244C1169.074,1507.244 1169.074,1506.722 1169.597,1506.722ZM1165.159,1504.111L1165.159,1504.894L1164.375,1504.894L1165.159,1504.111ZM1059.168,1499.673L1059.951,1499.673L1059.951,1500.456L1059.168,1500.456L1059.168,1499.673ZM1046.115,1498.368L1046.637,1498.368L1046.637,1499.151L1046.115,1499.151L1046.115,1498.368ZM1081.358,1497.585L1081.88,1497.585L1081.358,1498.368L1081.358,1497.585ZM1055.774,1497.323C1056.296,1497.323 1056.296,1497.846 1055.774,1497.846C1055.513,1497.846 1055.513,1497.323 1055.774,1497.323ZM1108.769,1493.408L1109.553,1493.408L1108.769,1494.191L1108.769,1493.408ZM1057.34,1492.363C1057.602,1492.363 1057.602,1493.146 1057.34,1493.146C1056.818,1493.146 1056.818,1492.363 1057.34,1492.363ZM1103.809,1485.315C1104.331,1485.315 1104.331,1485.837 1103.809,1485.837C1103.548,1485.837 1103.548,1485.315 1103.809,1485.315ZM1152.367,1477.222L1153.15,1477.222L1153.15,1478.005L1152.367,1478.005L1152.367,1477.222ZM1046.115,1473.828C1046.376,1473.828 1046.376,1474.611 1046.115,1474.611C1045.593,1474.611 1045.593,1473.828 1046.115,1473.828ZM1168.03,1472.784L1168.813,1472.784L1168.813,1473.567L1168.03,1473.567L1168.03,1472.784ZM1047.942,1470.956L1048.725,1470.956L1048.725,1471.74L1047.942,1471.74L1047.942,1470.956ZM1034.628,1470.173L1034.628,1470.956L1034.106,1470.956L1034.628,1470.173ZM1065.694,1434.147C1065.694,1434.669 1065.172,1434.669 1064.911,1434.147C1064.911,1433.625 1065.694,1433.625 1065.694,1434.147ZM1177.95,1430.231C1178.212,1430.231 1178.212,1431.014 1177.95,1431.014C1177.689,1431.014 1177.689,1430.231 1177.95,1430.231ZM1182.389,1426.315L1182.911,1426.315L1182.911,1426.837L1182.389,1426.315ZM1169.597,1423.443L1170.38,1423.443L1170.38,1424.226L1169.597,1424.226L1169.597,1423.443ZM1185.26,1422.921C1185.26,1422.66 1185.782,1422.66 1185.782,1422.921C1185.782,1423.182 1184.999,1423.965 1184.477,1423.443C1184.477,1423.443 1184.999,1422.921 1185.26,1422.921ZM1163.853,1420.05L1164.375,1420.05L1164.375,1420.572L1163.853,1420.572L1163.853,1420.05ZM1114.513,1413.001L1115.296,1413.001L1114.513,1413.784L1114.513,1413.001ZM1088.407,1412.218L1088.929,1412.218L1088.929,1413.001L1088.407,1413.001L1088.407,1412.218ZM1156.805,1413.001C1156.805,1413.523 1156.282,1413.523 1156.021,1413.001C1156.021,1412.479 1156.805,1412.479 1156.805,1413.001ZM1118.69,1412.218C1118.429,1412.74 1117.907,1412.74 1117.907,1412.218C1117.645,1411.957 1118.69,1411.957 1118.69,1412.218ZM1136.964,1409.346L1138.53,1409.346L1137.747,1410.129L1136.964,1409.346ZM1147.667,1399.165C1147.929,1399.165 1147.929,1399.948 1147.667,1399.948C1147.406,1399.948 1147.406,1399.165 1147.667,1399.165Z" style="fill:rgb(63,41,22);fill-rule:nonzero;"/>
    </g>
</svg>
